<svg width="115" height="115" viewBox="0 0 115 115" fill="none" xmlns="http://www.w3.org/2000/svg">
<path d="M57.4623 114.693C88.9017 114.693 114.388 89.2059 114.388 57.7665C114.388 26.327 88.9017 0.840332 57.4623 0.840332C26.0228 0.840332 0.536133 26.327 0.536133 57.7665C0.536133 89.2059 26.0228 114.693 57.4623 114.693Z" fill="url(#paint0_linear)"/>
<path d="M35.8162 63.5976C35.8162 68.8413 40.0951 73.1202 45.3388 73.1202C50.5826 73.1202 54.8615 68.8413 54.8615 63.5976C54.8615 62.6327 54.7356 61.7099 54.442 60.8709C54.442 60.8709 54.442 60.8709 54.442 60.8289C54.1483 59.7802 53.6449 58.8572 53.0157 57.9763C51.8411 54.6623 51.6313 49.2507 51.7991 46.0206C51.7991 45.9786 51.7991 45.8947 51.7991 45.8528C51.7991 41.3222 55.4907 37.6725 59.9794 37.6725C64.51 37.6725 68.1596 41.3641 68.1596 45.9367C68.2435 48.3698 67.9918 50.9287 67.4045 53.3618C66.8592 55.5851 65.6846 57.2212 64.3002 59.067C63.5032 60.1997 62.6222 61.3323 61.8671 62.7167C60.5247 65.0659 59.8116 68.0023 59.7277 71.61C59.6438 75.2177 60.7764 78.4898 62.8739 80.5873C64.5519 82.3073 66.8172 83.2302 69.3342 83.2302C75.2911 83.2302 78.9408 77.3572 78.9408 71.9037C78.9408 70.3935 77.7242 69.2189 76.256 69.2189C74.7458 69.2189 73.5712 70.4355 73.5712 71.9037C73.5712 74.3368 72.061 77.8186 69.3342 77.8186C68.2435 77.8186 67.4045 77.483 66.7333 76.8118C65.6846 75.7211 65.0973 73.8334 65.1392 71.7359C65.1812 69.0511 65.6426 66.9536 66.5655 65.4014C67.1948 64.2688 67.9079 63.3039 68.663 62.2552C70.2152 60.1157 71.8512 57.8924 72.6483 54.6203C73.3195 51.7258 73.6551 48.6634 73.5712 45.8528C73.5712 38.3437 67.4884 32.261 59.9794 32.261C52.5123 32.261 46.4295 38.3018 46.3876 45.7689C46.3456 46.6079 46.1778 50.2575 46.6812 54.1589C46.2198 54.075 45.7583 54.033 45.2969 54.033C40.0951 54.075 35.8162 58.3539 35.8162 63.5976ZM49.366 62.6328C49.4499 62.9264 49.4919 63.262 49.4919 63.5976C49.4919 65.8629 47.6461 67.7507 45.3388 67.7507C43.0735 67.7507 41.1858 65.9048 41.1858 63.5976C41.1858 61.3323 43.0316 59.4445 45.3388 59.4445C46.5554 59.4445 47.6041 59.9479 48.3592 60.7869C48.6948 61.4581 49.0304 62.0874 49.366 62.6328Z" fill="#4A2E11"/>
<mask id="mask0" mask-type="alpha" maskUnits="userSpaceOnUse" x="0" y="0" width="105" height="78">
<path d="M57.4623 0.840332C25.9998 0.840332 0.536133 26.3459 0.536133 57.7665C0.536133 64.7721 1.79464 71.526 4.14384 77.7346C65.8942 77.7346 104.195 25.2133 104.195 25.2133C93.8749 10.4888 76.8012 0.840332 57.4623 0.840332Z" fill="url(#paint1_linear)"/>
</mask>
<g mask="url(#mask0)">
<path opacity="0.3" d="M57.4623 0.840332C25.9998 0.840332 0.536133 26.3459 0.536133 57.7665C0.536133 64.7721 1.79464 71.526 4.14384 77.7346C65.8942 77.7346 104.195 25.2133 104.195 25.2133C93.8749 10.4888 76.8012 0.840332 57.4623 0.840332Z" fill="url(#paint2_linear)"/>
</g>
<defs>
<linearGradient id="paint0_linear" x1="17.1036" y1="17.4313" x2="96.98" y2="97.3077" gradientUnits="userSpaceOnUse">
<stop stop-color="#F9F29C"/>
<stop offset="0.0303113" stop-color="#F6EA92"/>
<stop offset="0.1151" stop-color="#EED97D"/>
<stop offset="0.2091" stop-color="#E9CD6E"/>
<stop offset="0.3185" stop-color="#E6C565"/>
<stop offset="0.4796" stop-color="#E5C362"/>
<stop offset="1" stop-color="#A4752B"/>
</linearGradient>
<linearGradient id="paint1_linear" x1="25.5424" y1="22.2571" x2="64.9075" y2="61.6222" gradientUnits="userSpaceOnUse">
<stop/>
<stop offset="0.1027" stop-color="#050505"/>
<stop offset="0.2263" stop-color="#141414"/>
<stop offset="0.3608" stop-color="#2C2C2C"/>
<stop offset="0.5031" stop-color="#4E4E4E"/>
<stop offset="0.6514" stop-color="#7A7A7A"/>
<stop offset="0.8049" stop-color="#B0B0B0"/>
<stop offset="0.9598" stop-color="#EEEEEE"/>
<stop offset="1" stop-color="white"/>
</linearGradient>
<linearGradient id="paint2_linear" x1="25.5424" y1="22.2571" x2="64.9075" y2="61.6222" gradientUnits="userSpaceOnUse">
<stop stop-color="white"/>
<stop offset="1" stop-color="white"/>
</linearGradient>
</defs>
</svg>
