<svg width="115" height="115" viewBox="0 0 115 115" fill="none" xmlns="http://www.w3.org/2000/svg">
<path d="M57.4623 114.168C88.9017 114.168 114.388 88.6815 114.388 57.2421C114.388 25.8026 88.9017 0.315918 57.4623 0.315918C26.0228 0.315918 0.536133 25.8026 0.536133 57.2421C0.536133 88.6815 26.0228 114.168 57.4623 114.168Z" fill="url(#paint0_linear)"/>
<path d="M71.4317 33.1208C65.2651 33.1208 59.9374 36.7705 57.4624 41.9723C54.9873 36.7286 49.6597 33.1208 43.493 33.1208C34.9772 33.1208 28.0554 40.0426 28.0554 48.5585C28.0554 53.3827 30.3627 57.9972 34.2221 60.8918C35.3967 61.7727 37.1166 61.563 37.9976 60.3464C38.8785 59.1718 38.6688 57.4519 37.4522 56.5709C34.8933 54.6412 33.425 51.7467 33.425 48.5585C33.425 43.0211 37.9137 38.5324 43.4511 38.5324C48.9885 38.5324 53.4771 43.0211 53.4771 48.6843L54.7356 78.7624C54.7776 80.2307 55.9941 81.3633 57.4204 81.3633C58.8887 81.3633 60.0633 80.2307 60.1052 78.7624L61.3637 48.6004C61.3637 43.063 65.8524 38.5743 71.3898 38.5743C76.9272 38.5743 81.4158 43.063 81.4158 48.6004C81.4158 51.7886 79.9476 54.7251 77.3886 56.6128C76.214 57.4938 75.9623 59.2137 76.8433 60.3883C77.7242 61.6049 79.4442 61.8147 80.6188 60.9337C84.4782 58.0392 86.7854 53.4247 86.7854 48.6004C86.8274 40.0426 79.9056 33.1208 71.4317 33.1208Z" fill="#4A2E11"/>
<mask id="mask0" mask-type="alpha" maskUnits="userSpaceOnUse" x="0" y="0" width="105" height="78">
<path d="M57.4623 0.273926C25.9998 0.273926 0.536133 25.7795 0.536133 57.2001C0.536133 64.2057 1.79464 70.9597 4.14384 77.1683C65.8942 77.1683 104.195 24.6469 104.195 24.6469C93.8749 9.92243 76.8012 0.273926 57.4623 0.273926Z" fill="url(#paint1_linear)"/>
</mask>
<g mask="url(#mask0)">
<path opacity="0.3" d="M57.4623 0.273926C25.9998 0.273926 0.536133 25.7795 0.536133 57.2001C0.536133 64.2057 1.79464 70.9597 4.14384 77.1683C65.8942 77.1683 104.195 24.6469 104.195 24.6469C93.8749 9.92243 76.8012 0.273926 57.4623 0.273926Z" fill="url(#paint2_linear)"/>
</g>
<defs>
<linearGradient id="paint0_linear" x1="17.1036" y1="16.8795" x2="96.98" y2="96.7559" gradientUnits="userSpaceOnUse">
<stop stop-color="#F9F29C"/>
<stop offset="0.0303113" stop-color="#F6EA92"/>
<stop offset="0.1151" stop-color="#EED97D"/>
<stop offset="0.2091" stop-color="#E9CD6E"/>
<stop offset="0.3185" stop-color="#E6C565"/>
<stop offset="0.4796" stop-color="#E5C362"/>
<stop offset="1" stop-color="#A4752B"/>
</linearGradient>
<linearGradient id="paint1_linear" x1="25.5425" y1="21.7052" x2="64.9075" y2="61.0703" gradientUnits="userSpaceOnUse">
<stop/>
<stop offset="0.1027" stop-color="#050505"/>
<stop offset="0.2263" stop-color="#141414"/>
<stop offset="0.3608" stop-color="#2C2C2C"/>
<stop offset="0.5031" stop-color="#4E4E4E"/>
<stop offset="0.6514" stop-color="#7A7A7A"/>
<stop offset="0.8049" stop-color="#B0B0B0"/>
<stop offset="0.9598" stop-color="#EEEEEE"/>
<stop offset="1" stop-color="white"/>
</linearGradient>
<linearGradient id="paint2_linear" x1="25.5425" y1="21.7052" x2="64.9075" y2="61.0703" gradientUnits="userSpaceOnUse">
<stop stop-color="white"/>
<stop offset="1" stop-color="white"/>
</linearGradient>
</defs>
</svg>
