<svg width="115" height="115" viewBox="0 0 115 115" fill="none" xmlns="http://www.w3.org/2000/svg">
<path d="M57.1127 114.168C88.5522 114.168 114.039 88.6815 114.039 57.2421C114.039 25.8026 88.5522 0.315918 57.1127 0.315918C25.6732 0.315918 0.186523 25.8026 0.186523 57.2421C0.186523 88.6815 25.6732 114.168 57.1127 114.168Z" fill="url(#paint0_linear)"/>
<path d="M37.7317 71.3371C37.7737 71.3371 37.7737 71.3791 37.7737 71.3791C37.7737 71.3791 37.8156 71.4211 37.8995 71.463C37.9415 71.5049 38.0254 71.5469 38.0673 71.5888C39.5775 72.5537 46.6251 76.7906 56.0638 76.7906C63.0695 76.7906 71.3337 74.4834 79.6817 66.8066C80.7724 65.7998 80.8563 64.0798 79.8495 62.9891C78.8427 61.8984 77.1228 61.8145 76.0321 62.8213C66.1738 71.8825 56.6092 72.26 49.9811 70.7918C52.0786 68.988 53.421 66.3032 53.421 63.2828C53.421 57.8293 48.9743 53.3826 43.5208 53.3826C38.0673 53.3826 33.6206 57.8293 33.6206 63.2828C33.6206 66.5968 35.2567 69.5333 37.7317 71.3371ZM43.5208 58.7941C45.9959 58.7941 48.0095 60.8077 48.0095 63.2828C48.0095 65.7578 45.9959 67.7714 43.5208 67.7714C42.5979 67.7714 41.7589 67.4778 41.0458 67.0163C41.0038 67.0163 41.0038 66.9743 41.0038 66.9743C39.8292 66.1773 39.0322 64.793 39.0322 63.2828C39.0322 60.8497 41.0458 58.7941 43.5208 58.7941Z" fill="#4A2E11"/>
<path d="M36.3484 52.2919C37.0196 52.2919 37.6489 52.0402 38.1943 51.5787C48.0525 42.5175 57.6171 42.14 64.2452 43.6082C62.1477 45.4121 60.8053 48.0969 60.8053 51.1173C60.8053 56.5708 65.252 61.0175 70.7055 61.0175C76.159 61.0175 80.6057 56.5708 80.6057 51.1173C80.6057 47.8032 78.9696 44.9087 76.4946 43.1048C76.4526 43.1048 76.4526 43.0629 76.4107 43.0629C76.4107 43.0629 76.3687 43.0209 76.2848 42.979C76.2429 42.937 76.2009 42.8951 76.159 42.8951C73.6 41.2171 54.1772 29.555 34.5027 47.6354C33.412 48.6422 33.3281 50.3622 34.3349 51.4529C34.8802 51.9982 35.5933 52.2919 36.3484 52.2919ZM70.6635 55.6479C68.1885 55.6479 66.1749 53.6343 66.1749 51.1592C66.1749 48.6842 68.1885 46.6706 70.6635 46.6706C71.5864 46.6706 72.4254 46.9642 73.1386 47.4257L73.1805 47.4676C74.3551 48.2647 75.1522 49.649 75.1522 51.1592C75.1941 53.6343 73.1805 55.6479 70.6635 55.6479Z" fill="#4A2E11"/>
<mask id="mask0" mask-type="alpha" maskUnits="userSpaceOnUse" x="0" y="0" width="104" height="78">
<path d="M57.1127 0.273926C25.6502 0.273926 0.186523 25.7795 0.186523 57.2001C0.186523 64.2057 1.44501 70.9597 3.79421 77.1683C65.5446 77.1683 103.845 24.6469 103.845 24.6469C93.5253 9.92243 76.4516 0.273926 57.1127 0.273926Z" fill="url(#paint1_linear)"/>
</mask>
<g mask="url(#mask0)">
<path opacity="0.3" d="M57.1127 0.273926C25.6502 0.273926 0.186523 25.7795 0.186523 57.2001C0.186523 64.2057 1.44501 70.9597 3.79421 77.1683C65.5446 77.1683 103.845 24.6469 103.845 24.6469C93.5253 9.92243 76.4516 0.273926 57.1127 0.273926Z" fill="url(#paint2_linear)"/>
</g>
<defs>
<linearGradient id="paint0_linear" x1="16.7591" y1="16.8795" x2="96.6355" y2="96.7559" gradientUnits="userSpaceOnUse">
<stop stop-color="#F9F29C"/>
<stop offset="0.0303113" stop-color="#F6EA92"/>
<stop offset="0.1151" stop-color="#EED97D"/>
<stop offset="0.2091" stop-color="#E9CD6E"/>
<stop offset="0.3185" stop-color="#E6C565"/>
<stop offset="0.4796" stop-color="#E5C362"/>
<stop offset="1" stop-color="#A4752B"/>
</linearGradient>
<linearGradient id="paint1_linear" x1="25.1979" y1="21.7053" x2="64.5629" y2="61.0702" gradientUnits="userSpaceOnUse">
<stop/>
<stop offset="0.1027" stop-color="#050505"/>
<stop offset="0.2263" stop-color="#141414"/>
<stop offset="0.3608" stop-color="#2C2C2C"/>
<stop offset="0.5031" stop-color="#4E4E4E"/>
<stop offset="0.6514" stop-color="#7A7A7A"/>
<stop offset="0.8049" stop-color="#B0B0B0"/>
<stop offset="0.9598" stop-color="#EEEEEE"/>
<stop offset="1" stop-color="white"/>
</linearGradient>
<linearGradient id="paint2_linear" x1="25.1979" y1="21.7053" x2="64.5629" y2="61.0702" gradientUnits="userSpaceOnUse">
<stop stop-color="white"/>
<stop offset="1" stop-color="white"/>
</linearGradient>
</defs>
</svg>
