<svg width="115" height="115" viewBox="0 0 115 115" fill="none" xmlns="http://www.w3.org/2000/svg">
<path d="M57.1127 114.259C88.5522 114.259 114.039 88.7723 114.039 57.3329C114.039 25.8934 88.5522 0.406738 57.1127 0.406738C25.6732 0.406738 0.186523 25.8934 0.186523 57.3329C0.186523 88.7723 25.6732 114.259 57.1127 114.259Z" fill="url(#paint0_linear)"/>
<path d="M77.7103 55.6549H67.2647C67.7681 45.3772 74.1026 40.4691 74.3962 40.2593C75.6128 39.3784 75.8645 37.7004 74.9835 36.4838C74.1026 35.2673 72.4246 35.0156 71.208 35.8965C70.8305 36.1482 62.3985 42.4826 61.8531 55.6549H52.3725C51.8271 42.4826 43.3951 36.1902 43.0176 35.8965C41.801 35.0156 40.123 35.2673 39.2421 36.4838C38.3611 37.7004 38.6128 39.3784 39.8294 40.2593C39.9133 40.3013 46.4155 45.2094 46.9609 55.6549H36.4734C34.9632 55.6549 33.7886 56.8715 33.7886 58.3397C33.7886 59.8499 35.0051 61.0245 36.4734 61.0245H46.6673C45.2829 69.6662 39.9552 74.2807 39.7035 74.4905C38.5709 75.4553 38.4031 77.1333 39.326 78.3079C39.8714 78.9371 40.6265 79.2728 41.4235 79.2728C42.0108 79.2728 42.64 79.063 43.1434 78.6435C43.479 78.3499 50.6525 72.3091 52.1208 61.0245H62.0629C63.5312 72.3091 70.7046 78.3499 71.0402 78.6435C71.5436 79.063 72.1309 79.2728 72.7602 79.2728C73.5572 79.2728 74.3123 78.9371 74.8577 78.3079C75.8225 77.1753 75.6547 75.4553 74.4801 74.4905C74.3962 74.4485 68.9008 69.7921 67.5164 61.0245H77.6683C79.1785 61.0245 80.3531 59.808 80.3531 58.3397C80.3951 56.8715 79.2205 55.6549 77.7103 55.6549Z" fill="#4A2E11"/>
<mask id="mask0" mask-type="alpha" maskUnits="userSpaceOnUse" x="0" y="0" width="104" height="78">
<path d="M57.1127 0.406738C25.6502 0.406738 0.186523 25.9123 0.186523 57.3328C0.186523 64.3385 1.44501 71.0924 3.79421 77.301C65.5446 77.301 103.845 24.7797 103.845 24.7797C93.5253 10.0133 76.4516 0.406738 57.1127 0.406738Z" fill="url(#paint1_linear)"/>
</mask>
<g mask="url(#mask0)">
<path opacity="0.3" d="M57.1127 0.406738C25.6502 0.406738 0.186523 25.9123 0.186523 57.3328C0.186523 64.3385 1.44501 71.0924 3.79421 77.301C65.5446 77.301 103.845 24.7797 103.845 24.7797C93.5253 10.0133 76.4516 0.406738 57.1127 0.406738Z" fill="url(#paint2_linear)"/>
</g>
<defs>
<linearGradient id="paint0_linear" x1="16.7591" y1="16.9832" x2="96.6354" y2="96.8596" gradientUnits="userSpaceOnUse">
<stop stop-color="#F9F29C"/>
<stop offset="0.0303113" stop-color="#F6EA92"/>
<stop offset="0.1151" stop-color="#EED97D"/>
<stop offset="0.2091" stop-color="#E9CD6E"/>
<stop offset="0.3185" stop-color="#E6C565"/>
<stop offset="0.4796" stop-color="#E5C362"/>
<stop offset="1" stop-color="#A4752B"/>
</linearGradient>
<linearGradient id="paint1_linear" x1="25.1979" y1="21.8091" x2="64.5628" y2="61.1741" gradientUnits="userSpaceOnUse">
<stop/>
<stop offset="0.1027" stop-color="#050505"/>
<stop offset="0.2263" stop-color="#141414"/>
<stop offset="0.3608" stop-color="#2C2C2C"/>
<stop offset="0.5031" stop-color="#4E4E4E"/>
<stop offset="0.6514" stop-color="#7A7A7A"/>
<stop offset="0.8049" stop-color="#B0B0B0"/>
<stop offset="0.9598" stop-color="#EEEEEE"/>
<stop offset="1" stop-color="white"/>
</linearGradient>
<linearGradient id="paint2_linear" x1="25.1979" y1="21.8091" x2="64.5628" y2="61.1741" gradientUnits="userSpaceOnUse">
<stop stop-color="white"/>
<stop offset="1" stop-color="white"/>
</linearGradient>
</defs>
</svg>
