<svg width="115" height="115" viewBox="0 0 115 115" fill="none" xmlns="http://www.w3.org/2000/svg">
<path d="M57.651 114.168C89.0905 114.168 114.577 88.6815 114.577 57.2421C114.577 25.8026 89.0905 0.315918 57.651 0.315918C26.2116 0.315918 0.724854 25.8026 0.724854 57.2421C0.724854 88.6815 26.2116 114.168 57.651 114.168Z" fill="url(#paint0_linear)"/>
<path d="M33.6976 37.8612C33.7815 37.8612 35.7951 37.4417 38.8994 38.9519C40.2838 39.6231 41.5003 41.1753 43.3461 43.5245C44.7305 45.2864 46.4923 47.5517 48.9254 50.2365C43.8914 53.2149 40.4516 58.7104 40.4516 64.9609C40.4516 74.3997 48.1284 82.0766 57.5672 82.0766C67.0059 82.0766 74.6828 74.3997 74.6828 64.9609C74.6828 58.7104 71.3268 53.2569 66.2928 50.2784C68.7678 47.5936 70.5717 45.3283 71.956 43.5245C73.8018 41.1753 74.9764 39.6231 76.4027 38.9519C79.4651 37.4837 81.4367 37.8193 81.6045 37.8612C83.0308 38.1968 84.4991 37.3578 84.8766 35.9315C85.2542 34.5052 84.4152 32.995 82.9469 32.6175C82.5694 32.5336 79.0036 31.6946 74.0535 34.0857C71.4946 35.3023 69.9005 37.3578 67.7191 40.2104C66.0411 42.3499 64.0275 44.9508 60.8812 48.1809C59.8325 47.9712 58.7418 47.8453 57.6091 47.8453C56.5184 47.8453 55.4697 47.9712 54.4629 48.139C51.3166 44.9508 49.303 42.3499 47.625 40.2104C45.4017 37.3578 43.8076 35.3023 41.2906 34.0857C36.3405 31.6946 32.7747 32.5336 32.3972 32.6175C30.9709 32.995 30.1738 34.4213 30.5094 35.8476C30.8031 37.2739 32.2293 38.1549 33.6976 37.8612ZM69.3132 64.9609C69.3132 71.4212 64.0694 76.665 57.6091 76.665C51.1488 76.665 45.9051 71.4212 45.9051 64.9609C45.9051 58.5006 51.1488 53.2569 57.6091 53.2569C64.0275 53.2569 69.3132 58.5006 69.3132 64.9609Z" fill="#4A2E11"/>
<mask id="mask0" mask-type="alpha" maskUnits="userSpaceOnUse" x="0" y="0" width="105" height="78">
<path d="M57.651 0.273926C26.1885 0.273926 0.724854 25.7795 0.724854 57.2001C0.724854 64.2057 1.98334 70.9597 4.33254 77.1683C66.0829 77.1683 104.383 24.6469 104.383 24.6469C94.0636 9.92243 76.99 0.273926 57.651 0.273926Z" fill="url(#paint1_linear)"/>
</mask>
<g mask="url(#mask0)">
<path opacity="0.3" d="M57.651 0.273926C26.1885 0.273926 0.724854 25.7795 0.724854 57.2001C0.724854 64.2057 1.98334 70.9597 4.33254 77.1683C66.0829 77.1683 104.383 24.6469 104.383 24.6469C94.0636 9.92243 76.99 0.273926 57.651 0.273926Z" fill="url(#paint2_linear)"/>
</g>
<defs>
<linearGradient id="paint0_linear" x1="17.322" y1="16.8795" x2="97.1983" y2="96.7559" gradientUnits="userSpaceOnUse">
<stop stop-color="#F9F29C"/>
<stop offset="0.0303113" stop-color="#F6EA92"/>
<stop offset="0.1151" stop-color="#EED97D"/>
<stop offset="0.2091" stop-color="#E9CD6E"/>
<stop offset="0.3185" stop-color="#E6C565"/>
<stop offset="0.4796" stop-color="#E5C362"/>
<stop offset="1" stop-color="#A4752B"/>
</linearGradient>
<linearGradient id="paint1_linear" x1="25.7608" y1="21.7053" x2="65.1258" y2="61.0703" gradientUnits="userSpaceOnUse">
<stop/>
<stop offset="0.1027" stop-color="#050505"/>
<stop offset="0.2263" stop-color="#141414"/>
<stop offset="0.3608" stop-color="#2C2C2C"/>
<stop offset="0.5031" stop-color="#4E4E4E"/>
<stop offset="0.6514" stop-color="#7A7A7A"/>
<stop offset="0.8049" stop-color="#B0B0B0"/>
<stop offset="0.9598" stop-color="#EEEEEE"/>
<stop offset="1" stop-color="white"/>
</linearGradient>
<linearGradient id="paint2_linear" x1="25.7608" y1="21.7053" x2="65.1258" y2="61.0703" gradientUnits="userSpaceOnUse">
<stop stop-color="white"/>
<stop offset="1" stop-color="white"/>
</linearGradient>
</defs>
</svg>
