<svg width="406" height="64" viewBox="0 0 406 64" fill="none" xmlns="http://www.w3.org/2000/svg">
<g clip-path="url(#clip0)">
<path d="M99.6819 38.4264L97.4047 26.2708C97.2812 25.6352 97.14 24.8849 96.9811 24.0198C96.8222 23.1547 96.6722 22.219 96.531 21.2126C96.1426 22.219 95.7631 23.1547 95.3924 24.0198C95.0217 24.8849 94.6951 25.6441 94.4127 26.2973L89.1965 38.4264H99.6819ZM110.326 52.9654H104.395C103.724 52.9654 103.203 52.8065 102.833 52.4888C102.462 52.171 102.206 51.7561 102.065 51.2441L100.662 43.7494H86.9193L83.689 51.2441C83.4595 51.7031 83.1065 52.1092 82.6299 52.4623C82.1533 52.7977 81.606 52.9654 80.9882 52.9654H74.9512L93.433 14.539H101.271L110.326 52.9654ZM136.642 21.8217C136.36 22.1925 136.086 22.475 135.821 22.6692C135.557 22.8457 135.23 22.934 134.842 22.934C134.471 22.934 134.091 22.8016 133.703 22.5368C133.315 22.2543 132.865 21.9453 132.353 21.6099C131.841 21.2744 131.249 20.9743 130.579 20.7094C129.908 20.427 129.096 20.2857 128.143 20.2857C127.242 20.2857 126.448 20.4181 125.76 20.683C125.089 20.9301 124.524 21.2832 124.065 21.7423C123.606 22.2013 123.262 22.7398 123.032 23.3577C122.803 23.9756 122.688 24.6377 122.688 25.3439C122.688 26.1031 122.891 26.7387 123.297 27.2507C123.703 27.7627 124.233 28.2129 124.886 28.6013C125.557 28.9897 126.316 29.3428 127.163 29.6606C128.028 29.9608 128.902 30.2874 129.784 30.6405C130.667 30.9936 131.532 31.3996 132.379 31.8587C133.244 32.3177 134.003 32.8915 134.656 33.5801C135.327 34.251 135.866 35.0631 136.272 36.0165C136.678 36.9699 136.881 38.1263 136.881 39.4857C136.881 41.3748 136.545 43.1668 135.874 44.8617C135.221 46.539 134.277 48.0132 133.041 49.2843C131.823 50.5379 130.34 51.5354 128.593 52.2769C126.845 53.0184 124.877 53.3892 122.688 53.3892C121.576 53.3892 120.464 53.2656 119.352 53.0184C118.257 52.7712 117.216 52.427 116.227 51.9856C115.239 51.5442 114.321 51.0145 113.474 50.3966C112.626 49.7787 111.903 49.0901 111.303 48.331L114.03 44.7028C114.242 44.4556 114.506 44.2438 114.824 44.0672C115.16 43.873 115.495 43.7759 115.83 43.7759C116.289 43.7759 116.739 43.9613 117.181 44.3321C117.64 44.6852 118.152 45.0736 118.716 45.4973C119.299 45.921 119.979 46.3183 120.755 46.689C121.55 47.0421 122.52 47.2187 123.668 47.2187C125.486 47.2187 126.898 46.7155 127.904 45.7092C128.928 44.6852 129.44 43.2374 129.44 41.366C129.44 40.5185 129.237 39.83 128.831 39.3003C128.425 38.753 127.896 38.294 127.242 37.9232C126.589 37.5525 125.839 37.2259 124.992 36.9434C124.162 36.6609 123.306 36.3608 122.423 36.043C121.541 35.7075 120.676 35.3279 119.829 34.9042C118.999 34.4628 118.257 33.8979 117.604 33.2093C116.951 32.5208 116.422 31.6821 116.016 30.6934C115.61 29.6871 115.407 28.4512 115.407 26.9859C115.407 25.3086 115.716 23.702 116.333 22.166C116.969 20.6123 117.869 19.2441 119.034 18.0612C120.199 16.8606 121.611 15.9072 123.271 15.201C124.93 14.4948 126.792 14.1417 128.858 14.1417C129.917 14.1417 130.941 14.2565 131.929 14.486C132.935 14.7155 133.871 15.0333 134.736 15.4394C135.601 15.8278 136.386 16.2956 137.092 16.843C137.816 17.3903 138.434 17.9817 138.946 18.6173L136.642 21.8217ZM169.849 20.7359H159.681L155.709 52.9654H148.084L152.002 20.7359H141.808L142.55 14.539H170.643L169.849 20.7359ZM184.254 32.8121C185.578 32.8121 186.708 32.6179 187.644 32.2294C188.579 31.841 189.347 31.3114 189.947 30.6405C190.547 29.9696 190.989 29.1839 191.271 28.2835C191.553 27.3831 191.695 26.4297 191.695 25.4234C191.695 23.8521 191.209 22.6162 190.238 21.7158C189.285 20.8154 187.802 20.3652 185.79 20.3652H182.215L180.68 32.8121H184.254ZM186.505 14.539C188.782 14.539 190.724 14.7861 192.33 15.2805C193.954 15.7572 195.278 16.4281 196.302 17.2932C197.343 18.1406 198.102 19.1646 198.579 20.3652C199.073 21.5481 199.32 22.8369 199.32 24.2316C199.32 25.6794 199.117 27.0476 198.711 28.3365C198.323 29.6253 197.749 30.7994 196.99 31.8587C196.231 32.918 195.305 33.8537 194.21 34.6659C193.133 35.478 191.898 36.1312 190.503 36.6256C190.962 36.8904 191.377 37.217 191.748 37.6054C192.136 37.9939 192.471 38.4617 192.754 39.009L199.029 52.9654H192.118C190.794 52.9654 189.929 52.4711 189.523 51.4824L184.572 39.5122C184.36 39.0532 184.095 38.7177 183.778 38.5059C183.46 38.294 182.983 38.1881 182.348 38.1881H180.018L178.191 52.9654H170.565L175.252 14.539H186.505ZM239.154 31.2231C239.154 33.3241 238.916 35.3368 238.439 37.2612C237.962 39.1679 237.283 40.9423 236.4 42.5842C235.535 44.2261 234.476 45.7092 233.223 47.0333C231.969 48.3574 230.566 49.4962 229.013 50.4496C227.477 51.3853 225.8 52.1092 223.982 52.6212C222.181 53.1332 220.284 53.3892 218.29 53.3892C215.801 53.3892 213.568 52.9566 211.591 52.0915C209.614 51.2088 207.937 50.0082 206.56 48.4899C205.183 46.9539 204.124 45.1442 203.382 43.0609C202.641 40.9776 202.27 38.7265 202.27 36.3078C202.27 34.2068 202.509 32.203 202.985 30.2962C203.462 28.3718 204.133 26.5886 204.998 24.9467C205.88 23.3048 206.948 21.8217 208.201 20.4976C209.455 19.1558 210.849 18.017 212.385 17.0813C213.938 16.1279 215.615 15.3952 217.416 14.8832C219.234 14.3712 221.14 14.1152 223.135 14.1152C225.624 14.1152 227.857 14.5566 229.834 15.4394C231.811 16.3221 233.488 17.5315 234.864 19.0675C236.241 20.6035 237.3 22.4132 238.042 24.4965C238.783 26.5798 239.154 28.822 239.154 31.2231ZM231.29 31.4085C231.29 29.7489 231.087 28.2394 230.681 26.8799C230.275 25.5028 229.675 24.3376 228.88 23.3842C228.104 22.4132 227.15 21.6628 226.021 21.1332C224.909 20.6035 223.638 20.3387 222.208 20.3387C220.355 20.3387 218.678 20.7183 217.178 21.4774C215.695 22.2366 214.424 23.3048 213.365 24.6819C212.323 26.059 211.52 27.7185 210.955 29.6606C210.39 31.6027 210.108 33.7566 210.108 36.1224C210.108 37.7996 210.311 39.318 210.717 40.6774C211.123 42.0192 211.705 43.1756 212.464 44.1467C213.241 45.1177 214.186 45.8681 215.298 46.3977C216.427 46.9097 217.707 47.1657 219.137 47.1657C220.99 47.1657 222.667 46.795 224.167 46.0534C225.668 45.2943 226.939 44.2261 227.98 42.849C229.039 41.4719 229.851 39.8212 230.416 37.8968C230.999 35.9547 231.29 33.7919 231.29 31.4085Z" fill="#ECC436"/>
<path d="M286.17 14.6713V52.9654H279.895V28.2305C279.895 27.2418 279.948 26.1736 280.054 25.026L268.483 46.7684C267.936 47.81 267.097 48.3309 265.967 48.3309H264.961C263.831 48.3309 262.993 47.81 262.446 46.7684L250.742 24.9466C250.795 25.5292 250.839 26.103 250.875 26.668C250.91 27.2329 250.928 27.7538 250.928 28.2305V52.9654H244.652V14.6713H250.027C250.345 14.6713 250.619 14.6801 250.848 14.6978C251.078 14.7154 251.281 14.7596 251.457 14.8302C251.651 14.9008 251.819 15.0156 251.96 15.1745C252.119 15.3334 252.269 15.5452 252.41 15.81L263.876 37.0757C264.176 37.6407 264.449 38.2233 264.696 38.8236C264.961 39.4238 265.217 40.0418 265.464 40.6774C265.711 40.0241 265.967 39.3974 266.232 38.7971C266.497 38.1791 266.779 37.5877 267.079 37.0227L278.386 15.81C278.527 15.5452 278.677 15.3334 278.836 15.1745C278.995 15.0156 279.162 14.9008 279.339 14.8302C279.533 14.7596 279.745 14.7154 279.974 14.6978C280.204 14.6801 280.477 14.6713 280.795 14.6713H286.17ZM314.943 38.5058L310.283 25.7676C310.054 25.2026 309.815 24.5317 309.568 23.7549C309.321 22.978 309.074 22.1394 308.827 21.239C308.597 22.1394 308.359 22.9869 308.112 23.7814C307.865 24.5582 307.626 25.2379 307.397 25.8205L302.763 38.5058H314.943ZM327.52 52.9654H322.013C321.395 52.9654 320.892 52.8153 320.504 52.5151C320.115 52.1974 319.824 51.8089 319.63 51.3499L316.77 43.5375H300.91L298.05 51.3499C297.909 51.756 297.635 52.1267 297.229 52.4622C296.823 52.7976 296.32 52.9654 295.72 52.9654H290.16L305.226 14.6713H312.481L327.52 52.9654ZM354.502 20.524H342.957V52.9654H335.835V20.524H324.29V14.6713H354.502V20.524ZM366.662 52.9654H359.513V14.6713H366.662V52.9654ZM401.527 43.9347C401.916 43.9347 402.26 44.0848 402.56 44.3849L405.367 47.4305C403.813 49.3549 401.898 50.8291 399.621 51.8531C397.361 52.8771 394.643 53.3891 391.465 53.3891C388.623 53.3891 386.064 52.9036 383.787 51.9325C381.527 50.9615 379.594 49.6109 377.988 47.8807C376.382 46.1505 375.146 44.0848 374.281 41.6837C373.434 39.2826 373.01 36.6608 373.01 33.8183C373.01 30.9405 373.469 28.3099 374.387 25.9265C375.305 23.5254 376.594 21.4597 378.253 19.7295C379.93 17.9993 381.924 16.6575 384.237 15.7041C386.549 14.7331 389.109 14.2476 391.916 14.2476C394.705 14.2476 397.176 14.7066 399.33 15.6247C401.501 16.5427 403.345 17.7433 404.863 19.2263L402.48 22.5367C402.339 22.7485 402.154 22.9339 401.924 23.0928C401.713 23.2517 401.412 23.3311 401.024 23.3311C400.759 23.3311 400.486 23.2605 400.203 23.1193C399.921 22.9604 399.612 22.775 399.277 22.5631C398.941 22.3336 398.553 22.0865 398.112 21.8216C397.67 21.5568 397.158 21.3185 396.576 21.1066C395.993 20.8771 395.314 20.6917 394.537 20.5505C393.778 20.3916 392.895 20.3121 391.889 20.3121C390.177 20.3121 388.606 20.6211 387.176 21.239C385.764 21.8393 384.546 22.722 383.522 23.8873C382.498 25.0349 381.704 26.4473 381.139 28.1245C380.574 29.7841 380.292 31.682 380.292 33.8183C380.292 35.9722 380.592 37.8878 381.192 39.5651C381.81 41.2423 382.639 42.6547 383.681 43.8023C384.722 44.9499 385.949 45.8327 387.361 46.4506C388.774 47.0509 390.292 47.351 391.916 47.351C392.887 47.351 393.76 47.298 394.537 47.1921C395.331 47.0862 396.055 46.9185 396.708 46.6889C397.379 46.4594 398.006 46.1681 398.588 45.815C399.188 45.4442 399.78 44.994 400.362 44.4644C400.539 44.3055 400.724 44.1819 400.918 44.0936C401.112 43.9877 401.315 43.9347 401.527 43.9347Z" fill="white"/>
<path fill-rule="evenodd" clip-rule="evenodd" d="M29.5683 0.0595008C27.5045 0.206021 25.7642 0.498412 23.7945 1.02924C21.6325 1.61207 19.9303 2.20946 19.9303 2.38563C19.9303 2.43593 20.0414 2.7074 20.1769 2.989C20.3127 3.2706 20.4889 3.8074 20.5686 4.18209C20.9292 5.8761 19.8494 8.01984 18.2644 8.75633C18.0627 8.85007 17.7954 8.97838 17.6701 9.04157C17.5449 9.10475 16.9122 9.15637 16.2643 9.15637C15.2782 9.15637 14.9664 9.10204 14.3507 8.82277C13.6195 8.49125 12.5298 7.51188 12.3835 7.05516C12.2874 6.75471 12.054 6.75068 11.7267 7.04386C11.5868 7.16906 11.2659 7.43973 11.0135 7.6454C8.11523 10.0066 5.17006 13.7118 3.24992 17.412C2.03985 19.7441 0.88316 22.9586 0.396538 25.3425C0.308944 25.7715 0.178337 26.3976 0.106347 26.7339C0.0343566 27.0702 0.00996721 27.4008 0.0523221 27.4686C0.0945459 27.5366 0.498162 27.6341 0.948987 27.6855C2.79948 27.8965 4.11223 29.0033 4.70808 30.8548C5.09111 32.0448 4.64738 33.8655 3.72697 34.8804C3.00956 35.6714 2.13519 36.1293 0.94925 36.335C0.426435 36.4257 -0.000785694 36.5345 1.08497e-06 36.5767C0.00511514 36.8627 0.687122 39.8641 0.977573 40.8786C1.86322 43.9718 3.29385 47.0279 5.13647 49.762C6.41317 51.6566 7.58847 53.0439 9.3961 54.7904C11.3729 56.7002 11.8705 57.131 12.0941 57.1262C12.185 57.1242 12.3971 56.905 12.5658 56.6387C13.2349 55.5822 14.938 54.6595 16.2194 54.6595C16.8915 54.6595 17.9687 55.0027 18.6589 55.4368C20.4334 56.5526 21.1452 59.1786 20.181 61.0525C19.8894 61.6192 19.9948 61.9401 20.4726 61.9401C20.609 61.9401 20.8231 61.9917 20.9484 62.0548C21.326 62.2455 21.8127 62.4335 22.1594 62.5231C22.3397 62.5697 22.6939 62.6661 22.9463 62.7377C28.4138 64.2849 34.3352 64.414 39.6324 63.102C40.9113 62.7853 42.0521 62.4653 42.4191 62.3208C42.5634 62.2638 42.9173 62.1433 43.2059 62.0529C44.0832 61.7777 44.1587 61.6459 43.8085 60.9999C43.3899 60.228 43.2875 58.7149 43.5894 57.7642C43.8815 56.8446 44.5349 55.9715 45.314 55.46C46.1141 54.9347 46.7882 54.7423 47.861 54.7339C49.2354 54.7229 50.7992 55.5838 51.4799 56.7263C51.8583 57.3614 51.7926 57.3943 53.8833 55.5282C55.7941 53.8227 57.4618 51.8585 59.0368 49.4592C61.0593 46.3779 62.1195 44.0161 63.3261 39.9036C63.389 39.689 63.5119 39.104 63.5992 38.6035C63.6866 38.103 63.8102 37.5236 63.874 37.3164C64.1056 36.5634 64.0622 36.5124 63.0392 36.3352C59.9479 35.7996 58.3124 32.8865 59.5743 30.1628C59.9444 29.3645 60.7839 28.4632 61.445 28.1549C61.6546 28.0574 61.9172 27.9329 62.0282 27.8784C62.1392 27.8239 62.5968 27.7374 63.0447 27.6857C63.4927 27.6343 63.8938 27.5366 63.9362 27.4686C63.9785 27.4008 63.947 27.0409 63.8665 26.669C63.7857 26.2969 63.6537 25.6708 63.573 25.2776C62.6961 21.0046 60.5626 16.3569 57.784 12.6666C57.2226 11.921 55.7795 10.2914 54.7906 9.28638C54.0876 8.57185 52.0527 6.8162 51.9276 6.8162C51.8778 6.8162 51.5706 7.15606 51.2454 7.57131C50.8091 8.1284 50.4338 8.43833 49.8147 8.75282C49.0477 9.14247 48.8727 9.17926 47.7798 9.17965C47.1223 9.17976 46.4731 9.12296 46.3374 9.0534C46.2017 8.98372 45.9208 8.84734 45.713 8.75048C45.0355 8.43443 44.2529 7.63825 43.8564 6.86197C43.5051 6.17357 43.4687 5.98349 43.4742 4.86607C43.4793 3.83991 43.5329 3.52399 43.7911 2.99809C44.0938 2.38133 44.0951 2.36171 43.8504 2.22115C43.6366 2.09856 41.9466 1.52223 40.5832 1.10698C39.7741 0.860487 37.1349 0.332129 36.0592 0.201211C34.4815 0.00918724 31.2658 -0.0610178 29.5683 0.0595008ZM36.1247 1.31175C37.6444 1.53576 38.3835 1.67135 39.2064 1.87716C39.5309 1.95829 39.9888 2.05618 40.2238 2.09466C40.459 2.13315 40.6836 2.21661 40.7233 2.28019C40.7631 2.3439 40.9654 2.3959 41.1733 2.3959C41.3811 2.3959 41.583 2.44685 41.6218 2.50913C41.6607 2.57141 41.8632 2.65618 42.072 2.69764C42.5709 2.79658 42.6465 3.04009 42.4005 3.75578L42.1977 4.34604H31.9941H21.7907L21.5879 3.75578C21.4763 3.43102 21.4165 3.08403 21.4551 2.98445C21.4936 2.88499 21.8596 2.70583 22.2684 2.58635C22.6773 2.46689 23.1594 2.32349 23.3397 2.26759C23.8137 2.12067 24.6279 1.91174 25.3066 1.76275C25.8381 1.646 26.2481 1.57203 27.9948 1.27717C29.7278 0.984516 34.0288 1.00285 36.1247 1.31175ZM42.4041 6.02809C42.5203 6.3812 42.6157 6.78462 42.6157 6.92465C42.6157 7.16957 42.0607 7.58378 40.9111 8.19663C40.6587 8.33121 40.4226 8.47058 40.3866 8.50633C40.3098 8.58225 39.942 8.79157 38.944 9.32694C38.5475 9.53977 38.1638 9.75779 38.0918 9.81149C37.7602 10.0585 36.7119 10.5865 36.553 10.5865C36.4557 10.5865 36.1214 10.3292 35.8099 10.0146C34.7137 8.90701 32.897 8.31027 31.3019 8.53349C30.8534 8.59641 30.3388 8.71188 30.1583 8.79027C29.2042 9.20512 28.8812 9.40495 28.2527 9.96893C27.8743 10.3085 27.4968 10.5865 27.414 10.5865C27.3311 10.5865 26.4838 10.1404 25.531 9.59514C24.5782 9.05002 23.6067 8.49424 23.3724 8.36005C23.138 8.22603 22.736 7.99826 22.4789 7.85382C21.2361 7.1558 21.255 7.19285 21.5787 6.08867L21.7847 5.38611H31.9884H42.1922L42.4041 6.02809ZM21.4671 8.51829C23.2929 9.52013 26.7622 11.5423 26.8234 11.6403C26.8637 11.7055 26.7942 12.1781 26.6685 12.6905C26.443 13.6107 26.4774 14.337 26.822 15.9168C26.8801 16.1832 26.8148 16.2859 26.4604 16.4859C26.2223 16.6202 25.8362 16.8395 25.6016 16.9734C25.3673 17.1073 24.969 17.334 24.7166 17.477C24.4641 17.62 24.0511 17.854 23.7987 17.997C23.5462 18.14 23.1332 18.374 22.8807 18.517C22.052 18.9866 21.595 19.2485 19.371 20.5284C18.1021 21.2587 17.0896 21.7621 16.9764 21.7189C16.8059 21.654 16.7849 20.913 16.8145 16.0181L16.8487 10.3919L17.7841 10.0667C18.8155 9.70801 19.548 9.26676 20.1344 8.6509C20.5882 8.17428 20.8014 8.15296 21.4671 8.51829ZM43.8696 8.64933C44.4837 9.29185 45.2456 9.75806 46.2271 10.0919L47.1397 10.4023L47.1739 16.0233C47.2035 20.9135 47.1825 21.654 47.0119 21.7189C46.8987 21.7621 45.8864 21.2587 44.6174 20.5284C42.3935 19.2485 41.9365 18.9866 41.1077 18.517C39.961 17.8674 39.7613 17.7534 39.2064 17.4321C38.8818 17.2442 38.2734 16.8996 37.8542 16.6662C37.1777 16.2896 37.1005 16.2053 37.1684 15.9168C37.5678 14.2217 37.5671 13.7539 37.162 11.9964C37.0872 11.6723 37.1689 11.6006 38.5051 10.8152C39.2873 10.3553 40.1931 9.8315 40.5177 9.65118C40.8423 9.47087 41.3734 9.16626 41.6977 8.9741C42.0223 8.78208 42.3913 8.59136 42.5175 8.5504C42.6435 8.50944 42.7469 8.4243 42.7469 8.36111C42.7469 8.0725 43.5042 8.26686 43.8696 8.64933ZM12.4571 8.85281C12.6728 9.0434 12.8493 9.2934 12.8493 9.40846C12.8493 9.5234 12.37 10.4351 11.7841 11.4345C11.1983 12.434 10.5708 13.5149 10.3895 13.8367C10.2083 14.1585 9.85336 14.7728 9.60093 15.2018C9.34837 15.6308 9.03182 16.172 8.89742 16.4044C8.60396 16.9119 8.64879 16.8351 6.2259 20.9872C5.16191 22.8105 4.1812 24.4926 4.04641 24.725C3.65524 25.3994 3.32887 25.9606 3.06398 26.4143C2.86755 26.7509 2.73313 26.8361 2.39785 26.8367C2.16679 26.8372 1.82257 26.7674 1.63283 26.6818C1.31169 26.5366 1.29399 26.485 1.37568 25.9341C1.5118 25.0172 2.18515 22.6498 2.70389 21.2648C3.96221 17.9046 6.14684 14.253 8.50888 11.5615C9.46377 10.4735 11.6007 8.50633 11.8276 8.50633C11.9581 8.50633 12.2412 8.6622 12.4571 8.85281ZM53.932 9.96893C54.744 10.7734 55.7661 11.8703 56.2034 12.4066C58.9675 15.7958 61.0955 19.9569 62.2019 24.1346C62.6599 25.8646 62.7281 26.3764 62.5225 26.5366C62.2621 26.7388 61.5119 26.9647 61.3298 26.8954C61.2413 26.8617 60.8446 26.2713 60.4485 25.5839C59.3585 23.6921 59.3541 23.6849 59.0558 23.1974C58.9024 22.9471 58.6304 22.479 58.4512 22.1572C58.272 21.8355 57.7131 20.8702 57.2094 20.0121C56.7054 19.1541 56.1443 18.1888 55.9625 17.867C55.7804 17.5452 55.3213 16.7554 54.9422 16.1119C54.5629 15.4683 54.1507 14.7663 54.026 14.5517C53.9014 14.3372 53.201 13.1334 52.4693 11.8764C51.7379 10.6194 51.1392 9.51104 51.1392 9.41327C51.1392 9.11918 51.8221 8.50633 52.1498 8.50633C52.3652 8.50633 52.895 8.9412 53.932 9.96893ZM33.2247 9.70176C34.3955 10.0386 35.4749 10.9791 36.031 12.1466C36.3059 12.7238 36.373 13.0625 36.3794 13.9044C36.3862 14.8271 36.3379 15.0462 35.9601 15.8071C35.5045 16.725 34.7578 17.4797 33.972 17.8172C33.7137 17.9281 33.3999 18.0724 33.2746 18.1379C32.9522 18.3064 31.1603 18.286 30.7218 18.1087C29.7382 17.7111 29.5069 17.581 28.9988 17.1392C28.6726 16.8559 28.2872 16.3231 28.0467 15.8234C27.6687 15.0383 27.6455 14.9063 27.6918 13.7926C27.7516 12.3491 28.0226 11.7048 28.9463 10.8087C30.0784 9.71021 31.7507 9.27755 33.2247 9.70176ZM14.8404 10.1486L15.603 10.3608L15.6169 16.0965C15.6245 19.2512 15.6201 22.0078 15.6069 22.2223C15.582 22.6304 15.3419 22.876 14.554 23.3004C14.3015 23.4361 13.8885 23.6661 13.6361 23.8111C13.3836 23.9561 11.8789 24.821 10.2923 25.7333C6.92471 27.6692 6.71398 27.7897 6.0633 28.1498C5.79291 28.2997 5.51558 28.4751 5.447 28.54C5.17977 28.7925 4.77379 28.6327 4.22827 28.0602C3.85089 27.6641 3.69864 27.4121 3.77679 27.3128C3.84171 27.23 4.07262 26.8409 4.29016 26.4477C4.50759 26.0544 5.55662 24.2408 6.62113 22.4172C7.68565 20.5939 8.70321 18.8388 8.88233 18.517C9.06146 18.1953 9.37119 17.6687 9.5705 17.347C9.76982 17.0252 10.7432 15.3578 11.7335 13.6417C13.8105 10.0426 13.8751 9.93642 13.991 9.93642C14.0388 9.93642 14.421 10.0318 14.8404 10.1486ZM51.0521 11.5627C51.5483 12.4201 52.2343 13.5897 52.5766 14.1617C52.9188 14.7338 53.346 15.4651 53.5258 15.7868C54.1849 16.9658 58.3936 24.1869 58.6957 24.6572C58.8669 24.9238 59.007 25.178 59.007 25.2222C59.007 25.2663 59.116 25.4577 59.2491 25.6474C59.3824 25.8372 59.6752 26.3283 59.8998 26.739L60.308 27.4851L59.7493 28.0715C59.1277 28.7241 58.8912 28.7788 58.349 28.3961C58.1454 28.2525 57.6641 27.9682 57.2798 27.765C56.8956 27.5617 55.4894 26.765 54.1551 25.9944C51.348 24.3734 50.7966 24.0578 49.4916 23.3249C49.2346 23.1806 48.8806 22.9692 48.7048 22.8548L48.3855 22.6474V16.5036V10.3597L49.0739 10.157C49.4523 10.0456 49.8495 9.96555 49.9559 9.97921C50.0625 9.99272 50.5558 10.7053 51.0521 11.5627ZM28.1471 17.7887C29.2947 18.8946 31.5087 19.6514 32.6259 19.3196C32.9083 19.2357 33.2602 19.1671 33.4078 19.1671C33.865 19.1671 35.2629 18.3761 35.871 17.773C36.4987 17.1508 36.6865 17.1324 37.3908 17.624C37.5821 17.7576 37.8035 17.867 37.8824 17.867C37.9614 17.867 38.0261 17.9117 38.0261 17.9663C38.0261 18.0209 38.2476 18.1665 38.5179 18.2898C38.7884 18.413 39.2456 18.6533 39.5342 18.8237C40.6218 19.466 45.4171 22.2252 46.2547 22.6904C47.2955 23.2689 47.2118 22.6514 47.1739 29.4769L47.1397 35.5836L46.4217 35.7658C44.0177 36.3758 42.3513 38.5126 42.3548 40.981C42.3557 41.5325 42.4411 42.261 42.5448 42.5997L42.7333 43.2159L42.3014 43.5423C42.064 43.7219 41.8337 43.8689 41.7895 43.8689C41.7454 43.8689 41.397 44.0536 41.0153 44.2796C40.0654 44.8415 38.9129 45.5053 37.895 46.0767C37.1022 46.5218 36.7344 46.7313 35.6331 47.364C33.1148 48.811 32.164 49.3279 32.0195 49.3285C31.9251 49.329 31.6005 49.1913 31.2982 49.0225C30.7869 48.7373 30.5113 48.582 29.3061 47.8991C27.5824 46.9226 27.888 47.0974 24.2576 45.0125C21.0725 43.1834 21.3207 43.4884 21.6265 41.7794C22.0822 39.2329 20.3149 36.5409 17.7011 35.7998C17.3765 35.708 17.0373 35.5774 16.9471 35.5094C16.8201 35.4143 16.7832 34.0295 16.7832 29.3634V23.3406L17.2093 23.0349C17.4437 22.8668 17.8125 22.6445 18.0289 22.541C18.2453 22.4375 18.4518 22.3232 18.4879 22.2874C18.5239 22.2517 18.6942 22.1436 18.8664 22.0476C19.5987 21.6388 20.0991 21.3528 21.9414 20.2897C23.0114 19.6723 23.9169 19.1671 23.9536 19.1671C23.9904 19.1671 24.1771 19.059 24.3686 18.9269C24.5599 18.7949 25.0412 18.5109 25.4377 18.2961C25.8344 18.0814 26.4244 17.7531 26.749 17.5668C27.0736 17.3804 27.3873 17.2254 27.4465 17.2224C27.5056 17.2194 27.8207 17.4742 28.1471 17.7887ZM30.072 20.5209C27.4597 21.0148 25.2664 22.178 23.5551 23.9768C22.1372 25.4671 21.1778 27.1539 20.639 29.1032C20.3774 30.05 20.2674 32.5705 20.4365 33.7465C20.7851 36.1717 21.9877 38.4828 23.8194 40.2481C24.7642 41.1586 26.5853 42.4386 26.9357 42.4386C27.0495 42.4386 27.1424 42.4973 27.1424 42.5688C27.1424 42.6403 27.2569 42.6988 27.3968 42.6988C27.5369 42.6988 27.6879 42.7573 27.7324 42.8288C27.777 42.9003 27.9542 42.9588 28.1259 42.9588C28.2978 42.9588 28.4705 43.0109 28.5105 43.0744C28.5932 43.2073 29.0965 43.302 30.7243 43.4904C32.1506 43.6557 35.2869 43.3812 35.478 43.0744C35.5177 43.0109 35.6656 42.9588 35.8066 42.9588C35.9475 42.9588 36.1653 42.9071 36.2907 42.844C36.4158 42.7807 36.694 42.6492 36.9089 42.5514C39.0217 41.5905 41.1554 39.5882 42.3405 37.4543C42.9241 36.4039 43.4837 34.6306 43.5989 33.468C43.6518 32.9318 43.7196 32.3761 43.7494 32.233C43.814 31.9217 43.5724 29.9743 43.3785 29.2427C42.2463 24.9772 39.0056 21.7562 34.8136 20.7299C33.3425 20.3698 31.3383 20.2815 30.072 20.5209ZM33.2905 21.5171C34.3211 21.6833 35.121 21.8783 35.4345 22.0399C35.5599 22.1045 35.7227 22.1572 35.7966 22.1572C36.0457 22.1572 37.1684 22.7218 37.9606 23.245C40.8707 25.1679 42.6117 28.4348 42.6117 31.9731C42.6117 36.1375 40.2948 39.7663 36.5182 41.5177C35.5049 41.9875 35.3227 42.0454 33.6642 42.4256C31.9451 42.8195 29.4869 42.4583 27.4703 41.515C24.4763 40.1145 22.418 37.5885 21.636 34.3545C20.5777 29.9778 22.672 25.1103 26.5524 22.9283C27.3554 22.4768 28.0328 22.1572 28.1868 22.1572C28.2636 22.1572 28.4286 22.1045 28.5539 22.0399C29.0689 21.7745 30.8591 21.4236 31.8481 21.3943C32.1642 21.3849 32.8132 21.4402 33.2905 21.5171ZM15.6266 24.3999C15.6497 24.561 15.6526 27.1373 15.633 30.1255C15.6058 34.2859 15.5596 35.569 15.4363 35.6032C14.3379 35.9066 14.0102 36.026 13.5069 36.307C13.1834 36.4875 12.6336 36.8995 12.2852 37.2226C11.7146 37.7518 11.6247 37.7935 11.3802 37.6419C11.2309 37.5497 10.9103 37.3623 10.6677 37.2262C10.4251 37.09 10.0055 36.853 9.73495 36.7C9.46454 36.5469 8.97768 36.2737 8.65312 36.0931C8.32858 35.9124 7.69326 35.5405 7.24112 35.2664C6.78911 34.9923 6.37605 34.7679 6.32321 34.7674C6.27049 34.7672 6.05412 34.6295 5.84263 34.4618C5.46928 34.1656 5.46352 34.1438 5.64592 33.7148C5.88812 33.1454 5.89075 30.9846 5.64987 30.2958C5.48149 29.8141 5.48817 29.7772 5.7844 29.5554C5.95578 29.427 6.30262 29.2107 6.55505 29.0748C6.80747 28.939 7.23534 28.7018 7.50573 28.5478C7.77627 28.3937 8.204 28.1507 8.45643 28.0077C8.70885 27.8647 9.12191 27.6306 9.37434 27.4876C10.033 27.1146 10.4177 26.8941 12.9786 25.4239C14.2396 24.6998 15.3419 24.1075 15.4281 24.1075C15.5142 24.1075 15.6037 24.239 15.6266 24.3999ZM51.4453 25.6675C52.9475 26.5256 54.2308 27.2276 54.297 27.2276C54.3632 27.2276 54.4175 27.2794 54.4175 27.3423C54.4175 27.4057 54.5207 27.4909 54.6469 27.5317C54.7729 27.5727 55.1419 27.7634 55.4664 27.9552C56.2403 28.4131 56.8687 28.7709 57.4333 29.0748C57.6858 29.2107 58.0364 29.4298 58.2127 29.5618C58.5242 29.7951 58.5278 29.8174 58.3437 30.3673C58.0942 31.1133 58.0979 33.1937 58.3497 33.6598C58.4788 33.8995 58.4962 34.0674 58.4062 34.2091C58.2921 34.3885 55.6915 35.9424 53.6306 37.0626C53.2339 37.2782 52.782 37.5338 52.6262 37.6305C52.3658 37.792 52.2857 37.754 51.6236 37.154C50.8471 36.4504 49.7983 35.8791 48.9698 35.7085L48.451 35.6017L48.4168 29.8545C48.3897 25.2946 48.4168 24.1075 48.5483 24.1075C48.6395 24.1075 49.9431 24.8095 51.4453 25.6675ZM6.7217 36.2163C7.6037 36.7265 8.51715 37.2531 8.75146 37.3864C8.9858 37.5195 9.39899 37.7549 9.66938 37.9096C9.9399 38.0643 10.3172 38.2705 10.508 38.3673C11.113 38.6752 11.1633 38.8186 10.9345 39.5827C10.7953 40.0477 10.7418 40.6246 10.7728 41.3257C10.8776 43.6857 12.5634 45.6956 14.9754 46.336L15.5936 46.5002L15.6311 49.3773C15.6517 50.9597 15.6391 52.5698 15.603 52.9554L15.5374 53.6563L14.8229 53.8368C14.4299 53.9361 14.0432 53.9926 13.9636 53.9624C13.839 53.9149 13.4877 53.3559 12.3232 51.3518C11.0822 49.216 10.4838 48.1896 9.43873 46.404C8.76918 45.2599 7.96285 43.8667 7.64697 43.3081C7.33095 42.7496 6.83803 41.9098 6.55152 41.4422C6.26498 40.9746 6.03053 40.5632 6.03053 40.5279C6.03053 40.4926 5.92155 40.3083 5.78832 40.1185C5.65509 39.9287 5.36845 39.4518 5.15143 39.0585C4.93442 38.6653 4.54561 37.9889 4.28743 37.5556C4.02922 37.1222 3.79937 36.698 3.77679 36.6131C3.7258 36.4211 4.72381 35.2993 4.95146 35.2929C5.04325 35.2903 5.83987 35.7058 6.7217 36.2163ZM59.7491 35.8738L60.3314 36.4593L59.9503 37.1414C59.7407 37.5164 59.3459 38.2036 59.0737 38.6684C56.1798 43.6028 55.639 44.5305 52.5148 49.9143C51.3113 51.9879 50.2624 53.7624 50.1836 53.8573C50.094 53.9659 49.9151 53.9997 49.7048 53.9478C49.5201 53.9026 49.1624 53.8238 48.91 53.7728L48.451 53.6803L48.4162 50.1036L48.3813 46.5269L49.0064 46.3486C50.9658 45.7889 52.299 44.5762 52.9706 42.7425C53.2228 42.0535 53.2533 41.7796 53.1864 40.7923C53.1439 40.1604 53.0935 39.4154 53.0748 39.1367C53.0432 38.6695 53.0816 38.6057 53.5651 38.3219C53.8535 38.1524 54.2076 37.9575 54.3519 37.8884C54.496 37.8194 55.5582 37.2098 56.7122 36.5338C57.866 35.8579 58.8905 35.3011 58.9885 35.2964C59.0867 35.292 59.4289 35.5518 59.7491 35.8738ZM17.0958 36.7329C18.9337 37.225 20.1061 38.3799 20.5132 40.0986C20.9827 42.0811 20.0254 44.0082 18.1052 44.9452C17.352 45.3129 17.1197 45.3636 16.1958 45.3603C15.3421 45.3572 15.0047 45.2924 14.4034 45.0161C13.4624 44.5833 12.6563 43.7853 12.213 42.848C11.7466 41.8615 11.7189 40.2258 12.1528 39.2903C13.022 37.4168 15.2825 36.2472 17.0958 36.7329ZM48.6982 36.7329C50.081 37.1032 51.1408 37.9215 51.7588 39.0963C52.0726 39.6928 52.1154 39.9208 52.1178 41.0086C52.1205 42.1705 52.0942 42.2925 51.6721 43.066C51.1673 43.9907 50.6203 44.4957 49.5662 45.0094C48.9662 45.3018 48.6693 45.361 47.7937 45.3623C46.8672 45.3636 46.6368 45.3129 45.8643 44.9359C44.9168 44.4738 44.2957 43.8572 43.7845 42.8716C43.5146 42.3517 43.4683 42.0789 43.4691 41.0178C43.47 39.9676 43.5192 39.6751 43.7849 39.1428C44.6871 37.3341 46.8968 36.2505 48.6982 36.7329ZM3.00564 37.4859C3.15473 37.6936 3.2768 37.8995 3.2768 37.9438C3.2768 37.9878 3.4162 38.2422 3.58652 38.5086C3.94504 39.0696 5.05375 40.9353 5.53563 41.7887C5.71725 42.1105 6.32464 43.1636 6.88523 44.1289C8.05517 46.1436 7.97137 45.9999 9.57247 48.7442C10.2399 49.8882 11.276 51.6727 11.8749 52.7095L12.9638 54.5946L12.4864 55.0822C12.224 55.3503 11.9287 55.5697 11.8304 55.5697C11.5773 55.5697 8.59292 52.5886 7.60028 51.3443C5.8543 49.1558 4.17675 46.3146 3.10934 43.7387C2.38918 42.0008 1.55887 39.2596 1.37568 38.0158C1.29058 37.4376 1.29635 37.4257 1.72567 37.2864C2.47219 37.0443 2.71583 37.0825 3.00564 37.4859ZM61.9574 37.2383C62.0019 37.3098 62.1725 37.3683 62.3367 37.3683C62.7475 37.3683 62.7992 37.4521 62.6838 37.9297C62.6286 38.1572 62.5119 38.6653 62.4238 39.0585C61.8726 41.5258 60.4611 45.0595 59.0745 47.4441C58.3309 48.723 56.9071 50.716 55.8235 51.9945C54.6436 53.3866 52.4036 55.5697 52.1549 55.5697C51.9492 55.5697 51.1392 54.7778 51.1392 54.5765C51.1392 54.4876 52.1348 52.7 53.3517 50.6044C58.5829 41.5951 60.4128 38.4516 60.6211 38.116C60.7429 37.9193 60.9327 37.6121 61.0425 37.4334C61.2462 37.1017 61.7989 36.9838 61.9574 37.2383ZM21.2416 44.5188C21.4219 44.6588 21.6088 44.7744 21.6569 44.7759C21.705 44.7775 22.2067 45.0509 22.7715 45.3835C23.3364 45.7161 24.1232 46.1639 24.5198 46.3786C24.9165 46.5931 25.3975 46.8769 25.589 47.0089C25.7806 47.1411 25.978 47.249 26.0279 47.249C26.0776 47.249 26.275 47.3571 26.4666 47.4891C26.6581 47.6213 27.1391 47.9062 27.5358 48.122C29.8803 49.3983 30.683 49.9068 30.683 50.1155C30.683 50.1683 30.1963 50.4876 29.6012 50.825C29.0061 51.1627 28.3275 51.5491 28.0932 51.684C27.8587 51.819 27.4604 52.0463 27.208 52.1894C26.9555 52.3324 26.5425 52.5665 26.29 52.7095C25.4103 53.2078 24.9655 53.4625 22.9125 54.6423C21.7762 55.2953 20.818 55.8296 20.7832 55.8296C20.7483 55.8296 20.3852 55.5293 19.9763 55.162C19.2032 54.4678 17.8154 53.7496 17.2475 53.7496C17.0159 53.7496 16.898 53.6633 16.8472 53.457C16.8074 53.2961 16.7916 51.6747 16.8119 49.8538L16.8487 46.543L17.5044 46.3422C18.5399 46.0248 19.315 45.5821 20.0377 44.8951C20.4058 44.5451 20.7535 44.2602 20.8103 44.2617C20.8672 44.2633 21.0613 44.3789 21.2416 44.5188ZM43.9822 44.8995C44.8396 45.6695 45.0382 45.7865 46.2218 46.2204L47.1397 46.5569V50.1184V53.6801L46.6807 53.7543C45.9528 53.8717 44.7085 54.5373 43.9583 55.2106C43.579 55.5511 43.2353 55.8296 43.1942 55.8296C43.1534 55.8296 42.4016 55.4123 41.5239 54.9021C40.6459 54.3921 39.7359 53.8655 39.5014 53.7322C38.8564 53.365 38.4299 53.1213 35.809 51.6222C34.4815 50.8628 33.3655 50.2122 33.3293 50.1762C33.2521 50.0999 33.6936 49.5892 33.837 49.5892C33.8904 49.5892 34.3092 49.365 34.7673 49.0909C35.2256 48.8166 35.952 48.4023 36.3818 48.1702C36.8116 47.9378 37.3132 47.6482 37.4965 47.5262C37.6797 47.4044 38.0065 47.2192 38.2229 47.1146C38.4392 47.01 38.6457 46.895 38.6819 46.8593C38.7178 46.8235 39.01 46.652 39.3313 46.4786C39.6523 46.3049 40.626 45.7382 41.4947 45.2189C42.3637 44.6998 43.1183 44.2715 43.1717 44.267C43.2249 44.2624 43.5896 44.5473 43.9822 44.8995ZM32.6499 51.0389C32.9023 51.1923 33.3006 51.4262 33.5349 51.5586C33.7695 51.691 34.1678 51.9164 34.4202 52.0594C34.6726 52.2024 35.0857 52.4365 35.3381 52.5795C35.5905 52.7225 36.0036 52.9565 36.256 53.0995C36.5084 53.2425 36.9065 53.4698 37.1411 53.6049C37.3756 53.7397 38.1278 54.1676 38.8129 54.5558C43.0137 56.9359 42.7911 56.7298 42.4354 57.9098L42.2589 58.4949H31.9851H21.7113L21.5939 58.0398C21.5294 57.7896 21.468 57.3897 21.4574 57.1511C21.4408 56.7731 21.5056 56.6793 21.9628 56.4209C22.2512 56.258 23.3724 55.6118 24.4542 54.9855C27.1996 53.3959 27.2611 53.361 27.9948 52.9693C28.3553 52.7768 28.9749 52.4268 29.3717 52.1913C29.7682 51.9559 30.2993 51.646 30.5517 51.5028C30.8041 51.3598 31.1879 51.138 31.4041 51.01C31.924 50.7032 32.1036 50.7072 32.6499 51.0389ZM42.4036 60.1991C42.6671 60.966 42.5497 61.1794 41.7434 61.399C41.3937 61.4941 40.9897 61.621 40.8456 61.6812C40.7013 61.7412 40.4063 61.8266 40.1898 61.871C39.9736 61.9154 39.5605 62.0114 39.2719 62.084C36.7324 62.7249 33.4531 62.9875 30.0272 62.825C27.1429 62.688 24.9772 62.3 22.3563 61.4508C21.4746 61.165 21.392 61.0145 21.6322 60.13L21.7762 59.5999H31.9871H42.1977L42.4036 60.1991Z" fill="#ECC436"/>
</g>
<defs>
<clipPath id="clip0">
<rect width="406" height="64" fill="white"/>
</clipPath>
</defs>
</svg>
