<svg width="89" height="89" viewBox="0 0 89 89" fill="none" xmlns="http://www.w3.org/2000/svg">
<path d="M44.5 0L52.0554 16.3027L66.75 5.96187L65.1419 23.8581L83.0381 22.25L72.6973 36.9446L89 44.5L72.6973 52.0554L83.0381 66.75L65.1419 65.1419L66.75 83.0381L52.0554 72.6973L44.5 89L36.9446 72.6973L22.25 83.0381L23.8581 65.1419L5.96187 66.75L16.3027 52.0554L0 44.5L16.3027 36.9446L5.96187 22.25L23.8581 23.8581L22.25 5.96187L36.9446 16.3027L44.5 0Z" fill="#E9CB51"/>
<path d="M30.7947 38.6933C32.0226 38.6933 33.0646 38.2654 33.9204 37.4095C34.7949 36.5351 35.2321 35.4839 35.2321 34.2559C35.2321 33.028 34.7949 31.986 33.9204 31.1302C33.0646 30.2557 32.0226 29.8185 30.7947 29.8185C29.5667 29.8185 28.5155 30.2557 27.6411 31.1302C26.7852 31.986 26.3573 33.028 26.3573 34.2559C26.3573 35.4839 26.7852 36.5351 27.6411 37.4095C28.5155 38.2654 29.5667 38.6933 30.7947 38.6933ZM41.1765 34.2559C41.1765 37.1212 40.1625 39.5678 38.1345 41.5958C36.1252 43.6238 33.6785 44.6378 30.7947 44.6378C27.9294 44.6378 25.4828 43.6238 23.4548 41.5958C21.4268 39.5678 20.4128 37.1212 20.4128 34.2559C20.4128 31.3907 21.4268 28.9441 23.4548 26.9161C25.4828 24.8881 27.9294 23.8741 30.7947 23.8741C33.6599 23.8741 36.1065 24.8881 38.1345 26.9161C40.1625 28.9441 41.1765 31.3907 41.1765 34.2559ZM62.3588 54.5731C62.3588 53.3451 61.9216 52.3032 61.0472 51.4474C60.1913 50.5729 59.1494 50.1357 57.9214 50.1357C56.6935 50.1357 55.6423 50.5729 54.7678 51.4474C53.912 52.3032 53.484 53.3451 53.484 54.5731C53.484 55.801 53.912 56.8522 54.7678 57.7267C55.6423 58.5825 56.6935 59.0105 57.9214 59.0105C59.1494 59.0105 60.1913 58.5825 61.0472 57.7267C61.9216 56.8522 62.3588 55.801 62.3588 54.5731ZM68.3033 54.5731C68.3033 57.4383 67.2893 59.8849 65.2613 61.9129C63.2333 63.9409 60.7867 64.9549 57.9214 64.9549C55.0562 64.9549 52.6096 63.9409 50.5816 61.9129C48.5536 59.8849 47.5396 57.4383 47.5396 54.5731C47.5396 51.6892 48.5536 49.2426 50.5816 47.2332C52.6096 45.2052 55.0562 44.1912 57.9214 44.1912C60.7867 44.1912 63.2333 45.2052 65.2613 47.2332C67.2893 49.2612 68.3033 51.7078 68.3033 54.5731ZM53.484 23.6787H57.7261L35.1763 65.2061H30.8505L53.484 23.6787Z" fill="#753FA9"/>
</svg>
