<svg width="115" height="115" viewBox="0 0 115 115" fill="none" xmlns="http://www.w3.org/2000/svg">
<path d="M57.8818 114.168C89.3212 114.168 114.808 88.6815 114.808 57.2421C114.808 25.8026 89.3212 0.315918 57.8818 0.315918C26.4423 0.315918 0.955566 25.8026 0.955566 57.2421C0.955566 88.6815 26.4423 114.168 57.8818 114.168Z" fill="url(#paint0_linear)"/>
<path d="M36.0258 81.3213C35.1868 82.5798 35.5644 84.2578 36.781 85.0548C38.0395 85.8938 39.7175 85.5163 40.5145 84.2997C40.5565 84.2158 45.0451 77.6297 57.8398 77.6297C70.3829 77.6297 74.9555 84.0061 75.1652 84.2997C75.6686 85.0968 76.5496 85.5163 77.4305 85.5163C77.9339 85.5163 78.4373 85.3904 78.8988 85.0548C80.1573 84.2158 80.4928 82.5798 79.6538 81.3213C79.486 81.0276 76.1301 76.1195 67.9498 73.6444V40.8815C76.1301 38.4064 79.486 33.4564 79.6538 33.2047C80.4928 31.9462 80.1153 30.2682 78.8988 29.4711C77.6403 28.6321 75.9622 29.0097 75.1652 30.2262C75.1232 30.3101 70.6346 36.8962 57.8398 36.8962C45.2548 36.8962 40.7243 30.5199 40.5145 30.2262C39.6755 29.0097 38.0395 28.6741 36.781 29.4711C35.5225 30.3101 35.1868 31.9462 36.0258 33.2047C36.2356 33.4983 39.8853 38.826 48.9045 41.2171V73.3927C39.8853 75.658 36.2356 81.0276 36.0258 81.3213ZM54.3161 42.0561C55.4487 42.14 56.6233 42.2239 57.8818 42.2239C59.5598 42.2239 61.1539 42.098 62.6221 41.9302V72.4698C61.1539 72.302 59.6018 72.1762 57.8818 72.1762C56.6233 72.1762 55.4487 72.2601 54.3161 72.344V42.0561Z" fill="#4A2E11"/>
<mask id="mask0" mask-type="alpha" maskUnits="userSpaceOnUse" x="0" y="0" width="105" height="78">
<path d="M57.8818 0.273926C26.4193 0.273926 0.955566 25.7795 0.955566 57.2001C0.955566 64.2057 2.21406 70.9597 4.56326 77.1683C66.3137 77.1683 104.614 24.6469 104.614 24.6469C94.2943 9.92243 77.2207 0.273926 57.8818 0.273926Z" fill="url(#paint1_linear)"/>
</mask>
<g mask="url(#mask0)">
<path opacity="0.3" d="M57.8818 0.273926C26.4193 0.273926 0.955566 25.7795 0.955566 57.2001C0.955566 64.2057 2.21406 70.9597 4.56326 77.1683C66.3137 77.1683 104.614 24.6469 104.614 24.6469C94.2943 9.92243 77.2207 0.273926 57.8818 0.273926Z" fill="url(#paint2_linear)"/>
</g>
<defs>
<linearGradient id="paint0_linear" x1="17.5405" y1="16.8795" x2="97.4168" y2="96.7559" gradientUnits="userSpaceOnUse">
<stop stop-color="#F9F29C"/>
<stop offset="0.0303113" stop-color="#F6EA92"/>
<stop offset="0.1151" stop-color="#EED97D"/>
<stop offset="0.2091" stop-color="#E9CD6E"/>
<stop offset="0.3185" stop-color="#E6C565"/>
<stop offset="0.4796" stop-color="#E5C362"/>
<stop offset="1" stop-color="#A4752B"/>
</linearGradient>
<linearGradient id="paint1_linear" x1="25.9793" y1="21.7053" x2="65.3442" y2="61.0702" gradientUnits="userSpaceOnUse">
<stop/>
<stop offset="0.1027" stop-color="#050505"/>
<stop offset="0.2263" stop-color="#141414"/>
<stop offset="0.3608" stop-color="#2C2C2C"/>
<stop offset="0.5031" stop-color="#4E4E4E"/>
<stop offset="0.6514" stop-color="#7A7A7A"/>
<stop offset="0.8049" stop-color="#B0B0B0"/>
<stop offset="0.9598" stop-color="#EEEEEE"/>
<stop offset="1" stop-color="white"/>
</linearGradient>
<linearGradient id="paint2_linear" x1="25.9793" y1="21.7053" x2="65.3442" y2="61.0702" gradientUnits="userSpaceOnUse">
<stop stop-color="white"/>
<stop offset="1" stop-color="white"/>
</linearGradient>
</defs>
</svg>
