<svg width="115" height="115" viewBox="0 0 115 115" fill="none" xmlns="http://www.w3.org/2000/svg">
<path d="M57.8818 114.693C89.3212 114.693 114.808 89.2059 114.808 57.7665C114.808 26.327 89.3212 0.840332 57.8818 0.840332C26.4423 0.840332 0.955566 26.327 0.955566 57.7665C0.955566 89.2059 26.4423 114.693 57.8818 114.693Z" fill="url(#paint0_linear)"/>
<path d="M85.359 70.4353H30.4045C28.8943 70.4353 27.7197 71.6518 27.7197 73.12C27.7197 74.6302 28.9363 75.8048 30.4045 75.8048H85.359C86.8692 75.8048 88.0438 74.5883 88.0438 73.12C88.0438 71.6518 86.8692 70.4353 85.359 70.4353Z" fill="#4A2E11"/>
<path d="M85.359 58.6055H74.9554V56.7597C74.9554 47.3629 67.3205 39.686 57.8818 39.686C48.485 39.686 40.8081 47.3209 40.8081 56.7597V58.6055H30.4045C28.8943 58.6055 27.7197 59.822 27.7197 61.2903C27.7197 62.8005 28.9363 63.9751 30.4045 63.9751H43.5349C45.0451 63.9751 46.2197 62.7585 46.2197 61.2903V56.7177C46.2197 50.2994 51.4634 45.0556 57.8818 45.0556C64.3001 45.0556 69.5439 50.2994 69.5439 56.7177V61.2903C69.5439 62.8005 70.7604 63.9751 72.2287 63.9751H85.359C86.8692 63.9751 88.0438 62.7585 88.0438 61.2903C88.0438 59.822 86.8692 58.6055 85.359 58.6055Z" fill="#4A2E11"/>
<mask id="mask0" mask-type="alpha" maskUnits="userSpaceOnUse" x="0" y="0" width="105" height="78">
<path d="M57.8818 0.840332C26.4193 0.840332 0.955566 26.3459 0.955566 57.7665C0.955566 64.7721 2.21406 71.526 4.56326 77.7346C66.3137 77.7346 104.614 25.2133 104.614 25.2133C94.2943 10.4888 77.2207 0.840332 57.8818 0.840332Z" fill="url(#paint1_linear)"/>
</mask>
<g mask="url(#mask0)">
<path opacity="0.3" d="M57.8818 0.840332C26.4193 0.840332 0.955566 26.3459 0.955566 57.7665C0.955566 64.7721 2.21406 71.526 4.56326 77.7346C66.3137 77.7346 104.614 25.2133 104.614 25.2133C94.2943 10.4888 77.2207 0.840332 57.8818 0.840332Z" fill="url(#paint2_linear)"/>
</g>
<defs>
<linearGradient id="paint0_linear" x1="17.5405" y1="17.4313" x2="97.4169" y2="97.3077" gradientUnits="userSpaceOnUse">
<stop stop-color="#F9F29C"/>
<stop offset="0.0303113" stop-color="#F6EA92"/>
<stop offset="0.1151" stop-color="#EED97D"/>
<stop offset="0.2091" stop-color="#E9CD6E"/>
<stop offset="0.3185" stop-color="#E6C565"/>
<stop offset="0.4796" stop-color="#E5C362"/>
<stop offset="1" stop-color="#A4752B"/>
</linearGradient>
<linearGradient id="paint1_linear" x1="25.9792" y1="22.2572" x2="65.3442" y2="61.6222" gradientUnits="userSpaceOnUse">
<stop/>
<stop offset="0.1027" stop-color="#050505"/>
<stop offset="0.2263" stop-color="#141414"/>
<stop offset="0.3608" stop-color="#2C2C2C"/>
<stop offset="0.5031" stop-color="#4E4E4E"/>
<stop offset="0.6514" stop-color="#7A7A7A"/>
<stop offset="0.8049" stop-color="#B0B0B0"/>
<stop offset="0.9598" stop-color="#EEEEEE"/>
<stop offset="1" stop-color="white"/>
</linearGradient>
<linearGradient id="paint2_linear" x1="25.9792" y1="22.2572" x2="65.3442" y2="61.6222" gradientUnits="userSpaceOnUse">
<stop stop-color="white"/>
<stop offset="1" stop-color="white"/>
</linearGradient>
</defs>
</svg>
