<svg width="115" height="115" viewBox="0 0 115 115" fill="none" xmlns="http://www.w3.org/2000/svg">
<path d="M57.8818 114.259C89.3212 114.259 114.808 88.7723 114.808 57.3329C114.808 25.8934 89.3212 0.406738 57.8818 0.406738C26.4423 0.406738 0.955566 25.8934 0.955566 57.3329C0.955566 88.7723 26.4423 114.259 57.8818 114.259Z" fill="url(#paint0_linear)"/>
<path d="M82.7999 41.5178L76.0879 48.2298C75.9201 48.3976 75.6685 48.3976 75.5007 48.2298L68.495 41.2241C67.4043 40.1334 65.9361 39.5042 64.3839 39.5042C62.8318 39.5042 61.3635 40.0914 60.2728 41.2241L53.3511 48.1459C53.1833 48.3137 52.9315 48.3137 52.7637 48.1459L46.0518 41.4338C43.7865 39.1685 40.0949 39.1685 37.8296 41.4338L29.1039 50.1595C28.0552 51.2082 28.0552 52.9282 29.1039 53.9769C29.6493 54.5223 30.3205 54.774 31.0337 54.774C31.7049 54.774 32.418 54.5223 32.9634 53.9769L41.6889 45.2513C41.8987 45.0415 42.0665 45.0415 42.2763 45.2513L48.9882 51.9633C51.2535 54.2286 54.9451 54.2286 57.2104 51.9633L64.1322 45.0415C64.3 44.8737 64.5517 44.8737 64.7195 45.0415L71.7252 52.0472C73.9905 54.3125 77.6821 54.3125 79.9474 52.0472L86.6594 45.3352C87.7081 44.2865 87.7081 42.5665 86.6594 41.5178C85.5687 40.469 83.8487 40.469 82.7999 41.5178Z" fill="#4A2E11"/>
<path d="M82.7999 61.9052L76.0879 68.6172C75.9201 68.785 75.6685 68.785 75.5007 68.6172L68.495 61.6115C67.4043 60.5208 65.9361 59.8916 64.3839 59.8916C62.8318 59.8916 61.3635 60.4789 60.2728 61.6115L53.3511 68.5333C53.1833 68.7011 52.9315 68.7011 52.7637 68.5333L46.0518 61.8213C43.7865 59.556 40.0949 59.556 37.8296 61.8213L29.1039 70.5469C28.0552 71.5957 28.0552 73.3156 29.1039 74.3644C29.6493 74.9097 30.3205 75.1614 31.0337 75.1614C31.7049 75.1614 32.418 74.9097 32.9634 74.3644L41.6889 65.6388C41.8987 65.429 42.0665 65.429 42.2763 65.6388L48.9882 72.3508C51.2535 74.6161 54.9451 74.6161 57.2104 72.3508L64.1322 65.429C64.3 65.2612 64.5517 65.2612 64.7195 65.429L71.7252 72.4347C73.9905 74.7 77.6821 74.7 79.9474 72.4347L86.6594 65.7227C87.7081 64.6739 87.7081 62.954 86.6594 61.9052C85.5687 60.8565 83.8487 60.8565 82.7999 61.9052Z" fill="#4A2E11"/>
<mask id="mask0" mask-type="alpha" maskUnits="userSpaceOnUse" x="0" y="0" width="105" height="78">
<path d="M57.8818 0.406738C26.4193 0.406738 0.955566 25.9123 0.955566 57.3328C0.955566 64.3385 2.21406 71.0924 4.56326 77.301C66.3137 77.301 104.614 24.7797 104.614 24.7797C94.2943 10.0133 77.2207 0.406738 57.8818 0.406738Z" fill="url(#paint1_linear)"/>
</mask>
<g mask="url(#mask0)">
<path opacity="0.3" d="M57.8818 0.406738C26.4193 0.406738 0.955566 25.9123 0.955566 57.3328C0.955566 64.3385 2.21406 71.0924 4.56326 77.301C66.3137 77.301 104.614 24.7797 104.614 24.7797C94.2943 10.0133 77.2207 0.406738 57.8818 0.406738Z" fill="url(#paint2_linear)"/>
</g>
<defs>
<linearGradient id="paint0_linear" x1="17.5405" y1="16.9832" x2="97.4168" y2="96.8596" gradientUnits="userSpaceOnUse">
<stop stop-color="#F9F29C"/>
<stop offset="0.0303113" stop-color="#F6EA92"/>
<stop offset="0.1151" stop-color="#EED97D"/>
<stop offset="0.2091" stop-color="#E9CD6E"/>
<stop offset="0.3185" stop-color="#E6C565"/>
<stop offset="0.4796" stop-color="#E5C362"/>
<stop offset="1" stop-color="#A4752B"/>
</linearGradient>
<linearGradient id="paint1_linear" x1="25.9793" y1="21.8091" x2="65.3442" y2="61.1741" gradientUnits="userSpaceOnUse">
<stop/>
<stop offset="0.1027" stop-color="#050505"/>
<stop offset="0.2263" stop-color="#141414"/>
<stop offset="0.3608" stop-color="#2C2C2C"/>
<stop offset="0.5031" stop-color="#4E4E4E"/>
<stop offset="0.6514" stop-color="#7A7A7A"/>
<stop offset="0.8049" stop-color="#B0B0B0"/>
<stop offset="0.9598" stop-color="#EEEEEE"/>
<stop offset="1" stop-color="white"/>
</linearGradient>
<linearGradient id="paint2_linear" x1="25.9793" y1="21.8091" x2="65.3442" y2="61.1741" gradientUnits="userSpaceOnUse">
<stop stop-color="white"/>
<stop offset="1" stop-color="white"/>
</linearGradient>
</defs>
</svg>
