<svg width="115" height="115" viewBox="0 0 115 115" fill="none" xmlns="http://www.w3.org/2000/svg">
<path d="M57.651 114.693C89.0905 114.693 114.577 89.2059 114.577 57.7665C114.577 26.327 89.0905 0.840332 57.651 0.840332C26.2116 0.840332 0.724854 26.327 0.724854 57.7665C0.724854 89.2059 26.2116 114.693 57.651 114.693Z" fill="url(#paint0_linear)"/>
<path d="M29.4605 46.0624C30.9707 46.0624 32.1453 44.8458 32.1453 43.3776C32.1453 40.7347 33.9911 38.5533 36.2984 38.5533C38.5637 38.5533 40.4514 40.6928 40.4514 43.3776V69.8061C40.4514 71.3163 41.668 72.4909 43.1362 72.4909C44.6464 72.4909 45.821 71.2743 45.821 69.8061V43.3776C45.821 40.7347 47.9605 38.5533 50.6453 38.5533C53.2881 38.5533 55.4695 40.6928 55.4695 43.3776V69.8061C55.4695 71.3163 56.6861 72.4909 58.1543 72.4909C59.6645 72.4909 60.8391 71.2743 60.8391 69.8061V43.3776C60.8391 40.7347 62.9786 38.5533 65.6634 38.5533C68.3062 38.5533 70.4876 40.6928 70.4876 43.3776V69.8061C70.4876 70.4773 70.6135 71.2743 70.8652 72.1133C66.8799 75.4274 63.482 77.2731 63.44 77.3151C62.1396 78.0282 61.6362 79.6643 62.3074 80.9648C62.8108 81.8877 63.7337 82.3911 64.6985 82.3911C65.118 82.3911 65.5795 82.3072 65.957 82.0555C66.2507 81.8877 69.6067 80.0838 73.7178 76.7698C75.6475 78.5736 78.542 79.9999 82.8629 80.2516C82.9048 80.2516 82.9887 80.2516 83.0307 80.2516C84.457 80.2516 85.6316 79.1609 85.7155 77.6927C85.7994 76.1825 84.6667 74.924 83.1565 74.8401C80.5137 74.6723 78.8357 74.0011 77.745 73.1621C81.1429 69.848 84.4989 65.653 86.7223 60.619C90.8753 51.2642 87.0579 46.2302 85.254 44.4683C82.737 42.0772 79.1713 41.0704 75.7314 41.5318C74.8924 36.7495 70.6974 33.0999 65.6634 33.0999C62.6849 33.0999 60.0001 34.4003 58.1543 36.4139C56.2666 34.4003 53.6237 33.0999 50.6453 33.0999C47.7088 33.0999 45.0659 34.3584 43.2201 36.33C41.4582 34.3584 39.0251 33.0999 36.2984 33.0999C31.0546 33.0999 26.7757 37.6724 26.7757 43.3357C26.7338 44.8459 27.9503 46.0624 29.4605 46.0624ZM81.5205 48.4536C83.6599 50.4672 83.7438 54.0329 81.7722 58.4796C80.3039 61.8356 78.1645 64.7721 75.8572 67.331V47.0692C77.9128 46.6077 80.0942 47.0692 81.5205 48.4536Z" fill="#4A2E11"/>
<mask id="mask0" mask-type="alpha" maskUnits="userSpaceOnUse" x="0" y="0" width="105" height="78">
<path d="M57.651 0.840332C26.1885 0.840332 0.724854 26.3459 0.724854 57.7665C0.724854 64.7721 1.98334 71.526 4.33254 77.7346C66.0829 77.7346 104.383 25.2133 104.383 25.2133C94.0636 10.4888 76.99 0.840332 57.651 0.840332Z" fill="url(#paint1_linear)"/>
</mask>
<g mask="url(#mask0)">
<path opacity="0.3" d="M57.651 0.840332C26.1885 0.840332 0.724854 26.3459 0.724854 57.7665C0.724854 64.7721 1.98334 71.526 4.33254 77.7346C66.0829 77.7346 104.383 25.2133 104.383 25.2133C94.0636 10.4888 76.99 0.840332 57.651 0.840332Z" fill="url(#paint2_linear)"/>
</g>
<defs>
<linearGradient id="paint0_linear" x1="17.322" y1="17.4313" x2="97.1983" y2="97.3077" gradientUnits="userSpaceOnUse">
<stop stop-color="#F9F29C"/>
<stop offset="0.0303113" stop-color="#F6EA92"/>
<stop offset="0.1151" stop-color="#EED97D"/>
<stop offset="0.2091" stop-color="#E9CD6E"/>
<stop offset="0.3185" stop-color="#E6C565"/>
<stop offset="0.4796" stop-color="#E5C362"/>
<stop offset="1" stop-color="#A4752B"/>
</linearGradient>
<linearGradient id="paint1_linear" x1="25.7607" y1="22.2572" x2="65.1258" y2="61.6223" gradientUnits="userSpaceOnUse">
<stop/>
<stop offset="0.1027" stop-color="#050505"/>
<stop offset="0.2263" stop-color="#141414"/>
<stop offset="0.3608" stop-color="#2C2C2C"/>
<stop offset="0.5031" stop-color="#4E4E4E"/>
<stop offset="0.6514" stop-color="#7A7A7A"/>
<stop offset="0.8049" stop-color="#B0B0B0"/>
<stop offset="0.9598" stop-color="#EEEEEE"/>
<stop offset="1" stop-color="white"/>
</linearGradient>
<linearGradient id="paint2_linear" x1="25.7607" y1="22.2572" x2="65.1258" y2="61.6223" gradientUnits="userSpaceOnUse">
<stop stop-color="white"/>
<stop offset="1" stop-color="white"/>
</linearGradient>
</defs>
</svg>
