<svg width="115" height="115" viewBox="0 0 115 115" fill="none" xmlns="http://www.w3.org/2000/svg">
<path d="M57.651 114.259C89.0905 114.259 114.577 88.7723 114.577 57.3329C114.577 25.8934 89.0905 0.406738 57.651 0.406738C26.2116 0.406738 0.724854 25.8934 0.724854 57.3329C0.724854 88.7723 26.2116 114.259 57.651 114.259Z" fill="url(#paint0_linear)"/>
<path d="M82.821 50.8306C77.9548 50.8306 73.7598 53.5993 71.6203 57.6265C70.1521 53.3476 69.397 48.5234 69.397 42.986C69.397 35.6867 63.4821 29.7717 56.1828 29.7717C51.2327 29.7717 46.9118 32.4985 44.6465 36.5257C42.3812 32.4985 38.0603 29.7717 33.1102 29.7717C25.8109 29.7717 19.896 35.6867 19.896 42.986C19.896 44.4962 21.1125 45.6707 22.5808 45.6707C24.091 45.6707 25.2656 44.4542 25.2656 42.986C25.2656 38.6651 28.7894 35.1832 33.0683 35.1832C37.3891 35.1832 40.871 38.707 40.871 43.1118L41.8778 67.9462C41.9197 69.4145 43.1363 70.5471 44.5626 70.5471C46.0308 70.5471 47.2054 69.4145 47.2474 67.9462L48.2542 42.986C48.2542 38.6651 51.778 35.1832 56.0569 35.1832C60.3777 35.1832 63.8596 38.7071 63.8596 42.986C63.8596 52.9281 66.1249 61.2761 70.6135 67.9042C68.9355 71.3861 65.7473 74.9099 62.4333 76.8815C58.7836 79.0629 54.4208 79.9439 50.2258 79.3566C48.7576 79.1468 47.3732 80.1956 47.1635 81.6638C46.9537 83.1321 48.0025 84.5165 49.4707 84.7262C50.5614 84.894 51.6941 84.9779 52.8268 84.9779C57.1476 84.9779 61.4685 83.8033 65.202 81.58C68.6419 79.5244 71.8301 76.2943 74.0534 72.8124C76.3187 74.9519 79.3391 76.2523 82.6951 76.2523C89.6588 76.2523 95.364 70.5891 95.364 63.5834C95.4479 56.5358 89.7847 50.8306 82.821 50.8306ZM82.821 70.7568C80.0104 70.7568 77.5772 69.1208 76.3607 66.7297C76.2768 66.5199 76.1929 66.3102 76.067 66.1004C75.7314 65.3034 75.5636 64.4224 75.5636 63.4995C75.5636 59.5142 78.7938 56.2422 82.821 56.2422C86.8063 56.2422 90.0783 59.4723 90.0783 63.4995C90.0364 67.4847 86.8063 70.7568 82.821 70.7568Z" fill="#4A2E11"/>
<mask id="mask0" mask-type="alpha" maskUnits="userSpaceOnUse" x="0" y="0" width="105" height="78">
<path d="M57.651 0.406738C26.1885 0.406738 0.724854 25.9123 0.724854 57.3328C0.724854 64.3385 1.98334 71.0924 4.33254 77.301C66.0829 77.301 104.383 24.7797 104.383 24.7797C94.0636 10.0133 76.99 0.406738 57.651 0.406738Z" fill="url(#paint1_linear)"/>
</mask>
<g mask="url(#mask0)">
<path opacity="0.3" d="M57.651 0.406738C26.1885 0.406738 0.724854 25.9123 0.724854 57.3328C0.724854 64.3385 1.98334 71.0924 4.33254 77.301C66.0829 77.301 104.383 24.7797 104.383 24.7797C94.0636 10.0133 76.99 0.406738 57.651 0.406738Z" fill="url(#paint2_linear)"/>
</g>
<defs>
<linearGradient id="paint0_linear" x1="17.322" y1="16.9832" x2="97.1983" y2="96.8596" gradientUnits="userSpaceOnUse">
<stop stop-color="#F9F29C"/>
<stop offset="0.0303113" stop-color="#F6EA92"/>
<stop offset="0.1151" stop-color="#EED97D"/>
<stop offset="0.2091" stop-color="#E9CD6E"/>
<stop offset="0.3185" stop-color="#E6C565"/>
<stop offset="0.4796" stop-color="#E5C362"/>
<stop offset="1" stop-color="#A4752B"/>
</linearGradient>
<linearGradient id="paint1_linear" x1="25.7608" y1="21.8091" x2="65.1258" y2="61.1741" gradientUnits="userSpaceOnUse">
<stop/>
<stop offset="0.1027" stop-color="#050505"/>
<stop offset="0.2263" stop-color="#141414"/>
<stop offset="0.3608" stop-color="#2C2C2C"/>
<stop offset="0.5031" stop-color="#4E4E4E"/>
<stop offset="0.6514" stop-color="#7A7A7A"/>
<stop offset="0.8049" stop-color="#B0B0B0"/>
<stop offset="0.9598" stop-color="#EEEEEE"/>
<stop offset="1" stop-color="white"/>
</linearGradient>
<linearGradient id="paint2_linear" x1="25.7608" y1="21.8091" x2="65.1258" y2="61.1741" gradientUnits="userSpaceOnUse">
<stop stop-color="white"/>
<stop offset="1" stop-color="white"/>
</linearGradient>
</defs>
</svg>
