<svg width="115" height="115" viewBox="0 0 115 115" fill="none" xmlns="http://www.w3.org/2000/svg">
<path d="M57.1127 114.693C88.5522 114.693 114.039 89.2059 114.039 57.7665C114.039 26.327 88.5522 0.840332 57.1127 0.840332C25.6732 0.840332 0.186523 26.327 0.186523 57.7665C0.186523 89.2059 25.6732 114.693 57.1127 114.693Z" fill="url(#paint0_linear)"/>
<path d="M89.4981 70.9388L81.7374 65.0658C80.9403 64.4366 79.8076 64.3527 78.8847 64.8141C77.9618 65.2756 77.3745 66.1985 77.3745 67.2472V69.974H74.5639C73.5152 69.5964 72.7601 68.5057 72.7601 67.2892V44.1328C72.7601 38.5115 68.1875 33.897 62.5243 33.897C59.5458 33.897 56.861 35.1974 55.0152 37.211C53.1275 35.1974 50.4847 33.897 47.5062 33.897C44.5697 33.897 41.9269 35.1555 40.0811 37.1271C38.3192 35.1555 35.8861 33.897 33.1593 33.897C27.9156 33.897 23.6367 38.4695 23.6367 44.1328C23.6367 45.643 24.8533 46.8176 26.3215 46.8176C27.8317 46.8176 29.0063 45.601 29.0063 44.1328C29.0063 41.4899 30.8521 39.3085 33.1593 39.3085C35.4246 39.3085 37.3124 41.448 37.3124 44.1328V70.5613C37.3124 72.0715 38.5289 73.2461 39.9972 73.2461C41.5074 73.2461 42.682 72.0295 42.682 70.5613V44.1328C42.682 41.4899 44.8214 39.3085 47.5062 39.3085C50.1491 39.3085 52.3305 41.448 52.3305 44.1328V70.5613C52.3305 72.0715 53.547 73.2461 55.0152 73.2461C56.5254 73.2461 57.7 72.0295 57.7 70.5613V44.1328C57.7 41.4899 59.8395 39.3085 62.5243 39.3085C65.1671 39.3085 67.3485 41.448 67.3485 44.1328V67.2892C67.3485 71.1066 69.9075 74.4207 73.5152 75.3017C73.7249 75.3436 73.9347 75.3855 74.1444 75.3855L77.2907 75.3436V78.9513C77.2907 79.9581 77.878 80.923 78.8009 81.3844C79.1784 81.5942 79.5979 81.678 80.0174 81.678C80.6047 81.678 81.192 81.5103 81.6534 81.1327L89.4142 75.2597C90.0854 74.7563 90.5049 73.9592 90.5049 73.1202C90.5468 72.2393 90.1693 71.4422 89.4981 70.9388Z" fill="#4A2E11"/>
<mask id="mask0" mask-type="alpha" maskUnits="userSpaceOnUse" x="0" y="0" width="104" height="78">
<path d="M57.1127 0.840332C25.6502 0.840332 0.186523 26.3459 0.186523 57.7665C0.186523 64.7721 1.44501 71.526 3.79421 77.7346C65.5446 77.7346 103.845 25.2133 103.845 25.2133C93.5253 10.4888 76.4516 0.840332 57.1127 0.840332Z" fill="url(#paint1_linear)"/>
</mask>
<g mask="url(#mask0)">
<path opacity="0.3" d="M57.1127 0.840332C25.6502 0.840332 0.186523 26.3459 0.186523 57.7665C0.186523 64.7721 1.44501 71.526 3.79421 77.7346C65.5446 77.7346 103.845 25.2133 103.845 25.2133C93.5253 10.4888 76.4516 0.840332 57.1127 0.840332Z" fill="url(#paint2_linear)"/>
</g>
<defs>
<linearGradient id="paint0_linear" x1="16.7591" y1="17.4313" x2="96.6355" y2="97.3078" gradientUnits="userSpaceOnUse">
<stop stop-color="#F9F29C"/>
<stop offset="0.0303113" stop-color="#F6EA92"/>
<stop offset="0.1151" stop-color="#EED97D"/>
<stop offset="0.2091" stop-color="#E9CD6E"/>
<stop offset="0.3185" stop-color="#E6C565"/>
<stop offset="0.4796" stop-color="#E5C362"/>
<stop offset="1" stop-color="#A4752B"/>
</linearGradient>
<linearGradient id="paint1_linear" x1="25.1978" y1="22.2571" x2="64.5629" y2="61.6222" gradientUnits="userSpaceOnUse">
<stop/>
<stop offset="0.1027" stop-color="#050505"/>
<stop offset="0.2263" stop-color="#141414"/>
<stop offset="0.3608" stop-color="#2C2C2C"/>
<stop offset="0.5031" stop-color="#4E4E4E"/>
<stop offset="0.6514" stop-color="#7A7A7A"/>
<stop offset="0.8049" stop-color="#B0B0B0"/>
<stop offset="0.9598" stop-color="#EEEEEE"/>
<stop offset="1" stop-color="white"/>
</linearGradient>
<linearGradient id="paint2_linear" x1="25.1978" y1="22.2571" x2="64.5629" y2="61.6222" gradientUnits="userSpaceOnUse">
<stop stop-color="white"/>
<stop offset="1" stop-color="white"/>
</linearGradient>
</defs>
</svg>
